  0
SECTION
  2
HEADER
  9
$ACADVER
  1
AC1014
  9
$HANDSEED
  5
FFFF
  9
$MEASUREMENT
 70
     1
  0
ENDSEC
  0
SECTION
  2
TABLES
  0
TABLE
  2
VPORT
  5
8
330
0
100
AcDbSymbolTable
 70
     4
  0
VPORT
  5
2E
330
8
100
AcDbSymbolTableRecord
100
AcDbViewportTableRecord
  2
*ACTIVE
 70
     0
 10
0.0
 20
0.0
 11
1.0
 21
1.0
 12
210.0
 22
148.5
 13
0.0
 23
0.0
 14
10.0
 24
10.0
 15
10.0
 25
10.0
 16
0.0
 26
0.0
 36
1.0
 17
0.0
 27
0.0
 37
0.0
 40
341.0
 41
1.24
 42
50.0
 43
0.0
 44
0.0
 50
0.0
 51
0.0
 71
     0
 72
   100
 73
     1
 74
     3
 75
     0
 76
     0
 77
     0
 78
     0
  0
ENDTAB
  0
TABLE
  2
LTYPE
  5
5
330
0
100
AcDbSymbolTable
 70
     1
  0
LTYPE
  5
14
330
5
100
AcDbSymbolTableRecord
100
AcDbLinetypeTableRecord
  2
BYBLOCK
 70
     0
  3

 72
    65
 73
     0
 40
0.0
  0
LTYPE
  5
15
330
5
100
AcDbSymbolTableRecord
100
AcDbLinetypeTableRecord
  2
BYLAYER
 70
     0
  3

 72
    65
 73
     0
 40
0.0
  0
LTYPE
  5
16
330
5
100
AcDbSymbolTableRecord
100
AcDbLinetypeTableRecord
  2
CONTINUOUS
 70
     0
  3
Solid line
 72
    65
 73
     0
 40
0.0
  0
ENDTAB
  0
TABLE
  2
LAYER
  5
2
100
AcDbSymbolTable
 70
1
  0
LAYER
  5
50
100
AcDbSymbolTableRecord
100
AcDbLayerTableRecord
  2
0
 70
0
  6
CONTINUOUS
  0
ENDTAB
  0
TABLE
  2
STYLE
  5
3
330
0
100
AcDbSymbolTable
 70
     1
  0
STYLE
  5
11
330
3
100
AcDbSymbolTableRecord
100
AcDbTextStyleTableRecord
  2
STANDARD
 70
     0
 40
0.0
 41
1.0
 50
0.0
 71
     0
 42
2.5
  3
txt
  4

  0
ENDTAB
  0
TABLE
  2
VIEW
  5
6
330
0
100
AcDbSymbolTable
 70
     0
  0
ENDTAB
  0
TABLE
  2
UCS
  5
7
330
0
100
AcDbSymbolTable
 70
     0
  0
ENDTAB
  0
TABLE
  2
APPID
  5
9
330
0
100
AcDbSymbolTable
 70
     2
  0
APPID
  5
12
330
9
100
AcDbSymbolTableRecord
100
AcDbRegAppTableRecord
  2
ACAD
 70
     0
  0
ENDTAB
  0
TABLE
  2
DIMSTYLE
  5
A
330
0
100
AcDbSymbolTable
 70
     1
  0
DIMSTYLE
105
27
330
A
100
AcDbSymbolTableRecord
100
AcDbDimStyleTableRecord
  2
ISO-25
 70
     0
  3

  4

  5

  6

  7

 40
1.0
 41
2.5
 42
0.625
 43
3.75
 44
1.25
 45
0.0
 46
0.0
 47
0.0
 48
0.0
140
2.5
141
2.5
142
0.0
143
0.03937007874016
144
1.0
145
0.0
146
1.0
147
0.625
 71
     0
 72
     0
 73
     0
 74
     0
 75
     0
 76
     0
 77
     1
 78
     8
170
     0
171
     3
172
     1
173
     0
174
     0
175
     0
176
     0
177
     0
178
     0
270
     2
271
     2
272
     2
273
     2
274
     3
340
11
275
     0
280
     0
281
     0
282
     0
283
     0
284
     8
285
     0
286
     0
287
     3
288
     0
  0
ENDTAB
  0
TABLE
  2
BLOCK_RECORD
  5
1
330
0
100
AcDbSymbolTable
 70
     1
  0
BLOCK_RECORD
  5
1F
330
1
100
AcDbSymbolTableRecord
100
AcDbBlockTableRecord
  2
*MODEL_SPACE
  0
BLOCK_RECORD
  5
1B
330
1
100
AcDbSymbolTableRecord
100
AcDbBlockTableRecord
  2
*PAPER_SPACE
  0
ENDTAB
  0
ENDSEC
  0
SECTION
  2
BLOCKS
  0
BLOCK
  5
20
330
1F
100
AcDbEntity
  8
0
100
AcDbBlockBegin
  2
*MODEL_SPACE
 70
     0
 10
0.0
 20
0.0
 30
0.0
  3
*MODEL_SPACE
  1

  0
ENDBLK
  5
21
330
1F
100
AcDbEntity
  8
0
100
AcDbBlockEnd
  0
BLOCK
  5
1C
330
1B
100
AcDbEntity
 67
     1
  8
0
100
AcDbBlockBegin
  2
*PAPER_SPACE
  1

  0
ENDBLK
  5
1D
330
1B
100
AcDbEntity
 67
     1
  8
0
100
AcDbBlockEnd
  0
ENDSEC
  0
SECTION
  2
ENTITIES
  0
LWPOLYLINE
  5
100
100
AcDbEntity
  8
0
 62
7
100
AcDbPolyline
 90
2
 70
0
 10
13.771085
 20
257.232366
 30
0.0
 10
11.749851
 20
251.011639
 30
0.0
  0
SPLINE
  5
101
100
AcDbEntity
  8
0
 62
1
100
AcDbSpline
 70
0
 71
3
 72
13
 73
9
 74
7
 40
0.000000
 40
0.000000
 40
0.000000
 40
0.000000
 40
1.475644
 40
2.238751
 40
4.170082
 40
6.101529
 40
6.864609
 40
8.340124
 40
8.340124
 40
8.340124
 40
8.340124
 10
11.749668
 20
251.011483
 30
0.0
 10
11.497135
 20
250.430658
 30
0.0
 10
11.114008
 20
249.549470
 30
0.0
 10
12.760246
 20
249.114738
 30
0.0
 10
13.926961
 20
250.304052
 30
0.0
 10
15.093634
 20
251.493190
 30
0.0
 10
16.739952
 20
251.058687
 30
0.0
 10
16.356755
 20
250.177541
 30
0.0
 10
16.104181
 20
249.596756
 30
0.0
 11
11.749668
 21
251.011483
 31
0.0
 11
11.542500
 21
249.550454
 31
0.0
 11
12.268252
 21
249.314622
 31
0.0
 11
13.926925
 21
250.303987
 31
0.0
 11
15.585715
 21
251.293382
 31
0.0
 11
16.311467
 21
251.057638
 31
0.0
 11
16.104181
 21
249.596756
 31
0.0
  0
LWPOLYLINE
  5
102
100
AcDbEntity
  8
0
 62
7
100
AcDbPolyline
 90
2
 70
0
 10
16.104355
 20
249.596774
 30
0.0
 10
12.567194
 20
238.710498
 30
0.0
  0
LWPOLYLINE
  5
103
100
AcDbEntity
  8
0
 62
7
100
AcDbPolyline
 90
2
 70
0
 10
9.223300
 20
243.235731
 30
0.0
 10
2.148974
 20
221.463186
 30
0.0
  0
SPLINE
  5
104
100
AcDbEntity
  8
0
 62
1
100
AcDbSpline
 70
0
 71
3
 72
13
 73
9
 74
7
 40
0.000000
 40
0.000000
 40
0.000000
 40
0.000000
 40
1.297027
 40
2.234751
 40
4.917335
 40
7.600042
 40
8.537838
 40
9.834896
 40
9.834896
 40
9.834896
 40
9.834896
 10
12.566966
 20
238.710475
 30
0.0
 10
12.375809
 20
238.120280
 30
0.0
 10
12.046450
 20
237.103388
 30
0.0
 10
10.920767
 20
239.043490
 30
0.0
 10
10.895027
 20
240.972966
 30
0.0
 10
10.869459
 20
242.902455
 30
0.0
 10
9.743834
 20
244.842725
 30
0.0
 10
9.414373
 20
243.825828
 30
0.0
 10
9.223162
 20
243.235643
 30
0.0
 11
12.566966
 21
238.710475
 31
0.0
 11
11.932113
 21
237.579440
 31
0.0
 11
11.374813
 21
238.333590
 31
0.0
 11
10.895064
 21
240.972927
 31
0.0
 11
10.415433
 21
243.612410
 31
0.0
 11
9.858133
 21
244.366649
 31
0.0
 11
9.223162
 21
243.235643
 31
0.0
  0
LWPOLYLINE
  5
105
100
AcDbEntity
  8
0
 62
7
100
AcDbPolyline
 90
2
 70
0
 10
13.771085
 20
257.232366
 30
0.0
 10
11.749851
 20
263.453093
 30
0.0
  0
SPLINE
  5
106
100
AcDbEntity
  8
0
 62
1
100
AcDbSpline
 70
0
 71
3
 72
13
 73
9
 74
7
 40
0.000000
 40
0.000000
 40
0.000000
 40
0.000000
 40
1.475602
 40
2.238709
 40
4.170201
 40
6.101539
 40
6.864646
 40
8.340199
 40
8.340199
 40
8.340199
 40
8.340199
 10
11.749668
 20
263.452985
 30
0.0
 10
11.612635
 20
264.071343
 30
0.0
 10
11.404734
 20
265.009484
 30
0.0
 10
9.817348
 20
264.393408
 30
0.0
 10
9.572403
 20
262.745553
 30
0.0
 10
9.327542
 20
261.097654
 30
0.0
 10
7.740236
 20
260.481626
 30
0.0
 10
7.532247
 20
261.419692
 30
0.0
 10
7.395156
 20
262.037993
 30
0.0
 11
11.749668
 21
263.452985
 31
0.0
 11
11.058665
 21
264.756793
 31
0.0
 11
10.332913
 21
264.520961
 31
0.0
 11
9.572412
 21
262.745489
 31
0.0
 11
8.812029
 21
260.970135
 31
0.0
 11
8.086277
 21
260.734303
 31
0.0
 11
7.395156
 21
262.037993
 31
0.0
  0
LWPOLYLINE
  5
107
100
AcDbEntity
  8
0
 62
7
100
AcDbPolyline
 90
2
 70
0
 10
7.395338
 20
262.038226
 30
0.0
 10
3.858177
 20
272.924504
 30
0.0
  0
LWPOLYLINE
  5
108
100
AcDbEntity
  8
0
 62
7
100
AcDbPolyline
 90
2
 70
0
 10
9.223300
 20
271.229001
 30
0.0
 10
2.148974
 20
293.001548
 30
0.0
  0
SPLINE
  5
109
100
AcDbEntity
  8
0
 62
1
100
AcDbSpline
 70
0
 71
3
 72
13
 73
9
 74
7
 40
0.000000
 40
0.000000
 40
0.000000
 40
0.000000
 40
1.297049
 40
2.234838
 40
4.917444
 40
7.600135
 40
8.537924
 40
9.834986
 40
9.834986
 40
9.834986
 40
9.834986
 10
3.857941
 20
272.924274
 30
0.0
 10
3.665761
 20
273.514127
 30
0.0
 10
3.334632
 20
274.530453
 30
0.0
 10
5.385707
 20
273.622489
 30
0.0
 10
6.540550
 20
272.076505
 30
0.0
 10
7.695475
 20
270.530631
 30
0.0
 10
9.746612
 20
269.622645
 30
0.0
 10
9.415394
 20
270.638970
 30
0.0
 10
9.223162
 20
271.228824
 30
0.0
 11
3.857941
 21
272.924274
 31
0.0
 11
3.706923
 21
274.212501
 31
0.0
 11
4.601127
 21
273.929926
 31
0.0
 11
6.540552
 21
272.076549
 31
0.0
 11
8.480095
 21
270.223172
 31
0.0
 11
9.374298
 21
269.940597
 31
0.0
 11
9.223162
 21
271.228824
 31
0.0
  0
LWPOLYLINE
  5
10a
100
AcDbEntity
  8
0
 62
7
100
AcDbPolyline
 90
2
 70
0
 10
51.381031
 20
257.232366
 30
0.0
 10
42.818932
 20
251.011639
 30
0.0
  0
SPLINE
  5
10b
100
AcDbEntity
  8
0
 62
1
100
AcDbSpline
 70
0
 71
3
 72
13
 73
9
 74
7
 40
0.000000
 40
0.000000
 40
0.000000
 40
0.000000
 40
2.387667
 40
3.622372
 40
6.747510
 40
9.872542
 40
11.107247
 40
13.494748
 40
13.494748
 40
13.494748
 40
13.494748
 10
42.818895
 20
251.011483
 30
0.0
 10
41.935851
 20
250.491388
 30
0.0
 10
40.596169
 20
249.702342
 30
0.0
 10
42.337822
 20
247.567608
 30
0.0
 10
44.996122
 20
248.014861
 30
0.0
 10
47.654380
 20
248.461850
 30
0.0
 10
49.395991
 20
246.327220
 30
0.0
 10
48.056382
 20
245.538204
 30
0.0
 10
47.173407
 20
245.018141
 30
0.0
 11
42.818895
 21
251.011483
 31
0.0
 11
41.158047
 21
249.296101
 31
0.0
 11
41.883799
 21
248.297211
 31
0.0
 11
44.996151
 21
248.014812
 31
0.0
 11
48.108386
 21
247.732296
 31
0.0
 11
48.834138
 21
246.733405
 31
0.0
 11
47.173407
 21
245.018141
 31
0.0
  0
LWPOLYLINE
  5
10c
100
AcDbEntity
  8
0
 62
7
100
AcDbPolyline
 90
2
 70
0
 10
47.173439
 20
245.018173
 30
0.0
 10
32.189768
 20
234.131900
 30
0.0
  0
LWPOLYLINE
  5
10d
100
AcDbEntity
  8
0
 62
7
100
AcDbPolyline
 90
2
 70
0
 10
32.116306
 20
243.235731
 30
0.0
 10
2.148974
 20
221.463186
 30
0.0
  0
SPLINE
  5
10e
100
AcDbEntity
  8
0
 62
1
100
AcDbSpline
 70
0
 71
3
 72
13
 73
9
 74
7
 40
0.000000
 40
0.000000
 40
0.000000
 40
0.000000
 40
2.098581
 40
3.615928
 40
7.956566
 40
12.297142
 40
13.814488
 40
15.913097
 40
15.913097
 40
15.913097
 40
15.913097
 10
32.189524
 20
234.131860
 30
0.0
 10
31.377981
 20
233.541148
 30
0.0
 10
29.979665
 20
232.523330
 30
0.0
 10
30.351556
 20
236.133646
 30
0.0
 10
32.153016
 20
238.683709
 30
0.0
 10
33.954405
 20
241.233899
 30
0.0
 10
34.326088
 20
244.844177
 30
0.0
 10
32.927778
 20
243.826359
 30
0.0
 10
32.116235
 20
243.235643
 30
0.0
 11
32.189524
 21
234.131860
 31
0.0
 11
30.282819
 21
233.255207
 31
0.0
 11
30.270648
 21
234.772504
 31
0.0
 11
32.153012
 21
238.683752
 31
0.0
 11
34.035228
 21
242.594999
 31
0.0
 11
34.022969
 21
244.112296
 31
0.0
 11
32.116235
 21
243.235643
 31
0.0
  0
LWPOLYLINE
  5
10f
100
AcDbEntity
  8
0
 62
7
100
AcDbPolyline
 90
2
 70
0
 10
51.381031
 20
257.232366
 30
0.0
 10
42.818932
 20
263.453093
 30
0.0
  0
SPLINE
  5
110
100
AcDbEntity
  8
0
 62
1
100
AcDbSpline
 70
0
 71
3
 72
13
 73
9
 74
7
 40
0.000000
 40
0.000000
 40
0.000000
 40
0.000000
 40
2.387681
 40
3.622387
 40
6.747469
 40
9.872555
 40
11.107332
 40
13.494843
 40
13.494843
 40
13.494843
 40
13.494843
 10
42.818895
 20
263.452985
 30
0.0
 10
42.051374
 20
264.132079
 30
0.0
 10
40.886956
 20
265.162343
 30
0.0
 10
39.394859
 20
262.846324
 30
0.0
 10
40.641709
 20
260.456310
 30
0.0
 10
41.888238
 20
258.066289
 30
0.0
 10
40.396300
 20
255.750194
 30
0.0
 10
39.231875
 20
256.780371
 30
0.0
 10
38.464383
 20
257.459379
 30
0.0
 11
42.818895
 21
263.452985
 31
0.0
 11
40.674212
 21
264.502440
 31
0.0
 11
39.948460
 21
263.503549
 31
0.0
 11
40.641639
 21
260.456314
 31
0.0
 11
41.334700
 21
257.409049
 31
0.0
 11
40.608948
 21
256.410070
 31
0.0
 11
38.464383
 21
257.459379
 31
0.0
  0
SPLINE
  5
111
100
AcDbEntity
  8
0
 62
1
100
AcDbSpline
 70
0
 71
3
 72
10
 73
6
 74
4
 40
0.000000
 40
0.000000
 40
0.000000
 40
0.000000
 40
2.098619
 40
3.616061
 40
7.956720
 40
7.956720
 40
7.956720
 40
7.956720
 10
23.480499
 20
268.345660
 30
0.0
 10
22.667960
 20
268.934980
 30
0.0
 10
21.267901
 20
269.950418
 30
0.0
 10
24.816424
 20
270.712582
 30
0.0
 10
26.529308
 20
270.181149
 30
0.0
 10
27.798499
 20
269.787374
 30
0.0
 11
23.480499
 21
268.345660
 31
0.0
 11
22.057629
 21
269.888269
 31
0.0
 11
23.496962
 21
270.368840
 31
0.0
 11
27.798499
 21
269.787374
 31
0.0
  0
LWPOLYLINE
  5
112
100
AcDbEntity
  8
0
 62
7
100
AcDbPolyline
 90
2
 70
0
 10
38.464425
 20
257.459625
 30
0.0
 10
23.480756
 20
268.345900
 30
0.0
  0
SPLINE
  5
113
100
AcDbEntity
  8
0
 62
5
100
AcDbSpline
 70
0
 71
3
 72
10
 73
6
 74
4
 40
0.000000
 40
0.000000
 40
0.000000
 40
0.000000
 40
4.340533
 40
5.857863
 40
7.956481
 40
7.956481
 40
7.956481
 40
7.956481
 10
27.798499
 20
269.787374
 30
0.0
 10
29.067640
 20
269.393553
 30
0.0
 10
30.780438
 20
268.862064
 30
0.0
 10
34.328859
 20
269.624105
 30
0.0
 10
32.928799
 20
270.639507
 30
0.0
 10
32.116235
 20
271.228824
 30
0.0
 11
27.798499
 21
269.787374
 31
0.0
 11
32.099889
 21
269.205761
 31
0.0
 11
33.539135
 21
269.686245
 31
0.0
 11
32.116235
 21
271.228824
 31
0.0
  0
LWPOLYLINE
  5
114
100
AcDbEntity
  8
0
 62
7
100
AcDbPolyline
 90
2
 70
0
 10
32.116306
 20
271.229001
 30
0.0
 10
2.148974
 20
293.001548
 30
0.0
  0
ENDSEC
  0
SECTION
  2
OBJECTS
  0
DICTIONARY
  5
C
330
0
100
AcDbDictionary
  3
ACAD_GROUP
350
D
  3
ACAD_MLINESTYLE
350
17
  0
DICTIONARY
  5
D
330
C
100
AcDbDictionary
  0
DICTIONARY
  5
1A
330
C
100
AcDbDictionary
  0
DICTIONARY
  5
17
330
C
100
AcDbDictionary
  3
STANDARD
350
18
  0
DICTIONARY
  5
19
330
C
100
AcDbDictionary
  0
ENDSEC
  0
EOF
