  0
SECTION
  2
HEADER
  9
$ACADVER
  1
AC1014
  9
$HANDSEED
  5
FFFF
  9
$MEASUREMENT
 70
     1
  0
ENDSEC
  0
SECTION
  2
TABLES
  0
TABLE
  2
VPORT
  5
8
330
0
100
AcDbSymbolTable
 70
     4
  0
VPORT
  5
2E
330
8
100
AcDbSymbolTableRecord
100
AcDbViewportTableRecord
  2
*ACTIVE
 70
     0
 10
0.0
 20
0.0
 11
1.0
 21
1.0
 12
210.0
 22
148.5
 13
0.0
 23
0.0
 14
10.0
 24
10.0
 15
10.0
 25
10.0
 16
0.0
 26
0.0
 36
1.0
 17
0.0
 27
0.0
 37
0.0
 40
341.0
 41
1.24
 42
50.0
 43
0.0
 44
0.0
 50
0.0
 51
0.0
 71
     0
 72
   100
 73
     1
 74
     3
 75
     0
 76
     0
 77
     0
 78
     0
  0
ENDTAB
  0
TABLE
  2
LTYPE
  5
5
330
0
100
AcDbSymbolTable
 70
     1
  0
LTYPE
  5
14
330
5
100
AcDbSymbolTableRecord
100
AcDbLinetypeTableRecord
  2
BYBLOCK
 70
     0
  3

 72
    65
 73
     0
 40
0.0
  0
LTYPE
  5
15
330
5
100
AcDbSymbolTableRecord
100
AcDbLinetypeTableRecord
  2
BYLAYER
 70
     0
  3

 72
    65
 73
     0
 40
0.0
  0
LTYPE
  5
16
330
5
100
AcDbSymbolTableRecord
100
AcDbLinetypeTableRecord
  2
CONTINUOUS
 70
     0
  3
Solid line
 72
    65
 73
     0
 40
0.0
  0
ENDTAB
  0
TABLE
  2
LAYER
  5
2
100
AcDbSymbolTable
 70
1
  0
LAYER
  5
50
100
AcDbSymbolTableRecord
100
AcDbLayerTableRecord
  2
0
 70
0
  6
CONTINUOUS
  0
ENDTAB
  0
TABLE
  2
STYLE
  5
3
330
0
100
AcDbSymbolTable
 70
     1
  0
STYLE
  5
11
330
3
100
AcDbSymbolTableRecord
100
AcDbTextStyleTableRecord
  2
STANDARD
 70
     0
 40
0.0
 41
1.0
 50
0.0
 71
     0
 42
2.5
  3
txt
  4

  0
ENDTAB
  0
TABLE
  2
VIEW
  5
6
330
0
100
AcDbSymbolTable
 70
     0
  0
ENDTAB
  0
TABLE
  2
UCS
  5
7
330
0
100
AcDbSymbolTable
 70
     0
  0
ENDTAB
  0
TABLE
  2
APPID
  5
9
330
0
100
AcDbSymbolTable
 70
     2
  0
APPID
  5
12
330
9
100
AcDbSymbolTableRecord
100
AcDbRegAppTableRecord
  2
ACAD
 70
     0
  0
ENDTAB
  0
TABLE
  2
DIMSTYLE
  5
A
330
0
100
AcDbSymbolTable
 70
     1
  0
DIMSTYLE
105
27
330
A
100
AcDbSymbolTableRecord
100
AcDbDimStyleTableRecord
  2
ISO-25
 70
     0
  3

  4

  5

  6

  7

 40
1.0
 41
2.5
 42
0.625
 43
3.75
 44
1.25
 45
0.0
 46
0.0
 47
0.0
 48
0.0
140
2.5
141
2.5
142
0.0
143
0.03937007874016
144
1.0
145
0.0
146
1.0
147
0.625
 71
     0
 72
     0
 73
     0
 74
     0
 75
     0
 76
     0
 77
     1
 78
     8
170
     0
171
     3
172
     1
173
     0
174
     0
175
     0
176
     0
177
     0
178
     0
270
     2
271
     2
272
     2
273
     2
274
     3
340
11
275
     0
280
     0
281
     0
282
     0
283
     0
284
     8
285
     0
286
     0
287
     3
288
     0
  0
ENDTAB
  0
TABLE
  2
BLOCK_RECORD
  5
1
330
0
100
AcDbSymbolTable
 70
     1
  0
BLOCK_RECORD
  5
1F
330
1
100
AcDbSymbolTableRecord
100
AcDbBlockTableRecord
  2
*MODEL_SPACE
  0
BLOCK_RECORD
  5
1B
330
1
100
AcDbSymbolTableRecord
100
AcDbBlockTableRecord
  2
*PAPER_SPACE
  0
ENDTAB
  0
ENDSEC
  0
SECTION
  2
BLOCKS
  0
BLOCK
  5
20
330
1F
100
AcDbEntity
  8
0
100
AcDbBlockBegin
  2
*MODEL_SPACE
 70
     0
 10
0.0
 20
0.0
 30
0.0
  3
*MODEL_SPACE
  1

  0
ENDBLK
  5
21
330
1F
100
AcDbEntity
  8
0
100
AcDbBlockEnd
  0
BLOCK
  5
1C
330
1B
100
AcDbEntity
 67
     1
  8
0
100
AcDbBlockBegin
  2
*PAPER_SPACE
  1

  0
ENDBLK
  5
1D
330
1B
100
AcDbEntity
 67
     1
  8
0
100
AcDbBlockEnd
  0
ENDSEC
  0
SECTION
  2
ENTITIES
  0
LWPOLYLINE
  5
100
100
AcDbEntity
  8
0
 62
7
100
AcDbPolyline
 90
2
 70
0
 10
54.724655
 20
158.094866
 30
0.0
 10
46.162558
 20
164.315592
 30
0.0
  0
SPLINE
  5
101
100
AcDbEntity
  8
0
 62
1
100
AcDbSpline
 70
0
 71
3
 72
13
 73
9
 74
7
 40
0.000000
 40
0.000000
 40
0.000000
 40
0.000000
 40
2.387681
 40
3.622387
 40
6.747469
 40
9.872526
 40
11.107232
 40
13.494807
 40
13.494807
 40
13.494807
 40
13.494807
 10
46.162497
 20
164.315380
 30
0.0
 10
45.394976
 20
164.994474
 30
0.0
 10
44.230558
 20
166.024738
 30
0.0
 10
42.738463
 20
163.708718
 30
0.0
 10
43.985284
 20
161.318725
 30
0.0
 10
45.231879
 20
158.928696
 30
0.0
 10
43.739835
 20
156.612700
 30
0.0
 10
42.575464
 20
157.642958
 30
0.0
 10
41.807985
 20
158.322038
 30
0.0
 11
46.162497
 21
164.315380
 31
0.0
 11
44.017814
 21
165.364835
 31
0.0
 11
43.292062
 21
164.365945
 31
0.0
 11
43.985241
 21
161.318709
 31
0.0
 11
44.678303
 21
158.271473
 31
0.0
 11
43.952550
 21
157.272583
 31
0.0
 11
41.807985
 21
158.322038
 31
0.0
  0
LWPOLYLINE
  5
102
100
AcDbEntity
  8
0
 62
7
100
AcDbPolyline
 90
2
 70
0
 10
41.808051
 20
158.322125
 30
0.0
 10
26.824380
 20
169.208396
 30
0.0
  0
LWPOLYLINE
  5
103
100
AcDbEntity
  8
0
 62
7
100
AcDbPolyline
 90
2
 70
0
 10
35.459940
 20
172.091502
 30
0.0
 10
5.492600
 20
193.864046
 30
0.0
  0
SPLINE
  5
104
100
AcDbEntity
  8
0
 62
1
100
AcDbSpline
 70
0
 71
3
 72
13
 73
9
 74
7
 40
0.000000
 40
0.000000
 40
0.000000
 40
0.000000
 40
2.098611
 40
3.615941
 40
7.956575
 40
12.297089
 40
13.814447
 40
15.913086
 40
15.913086
 40
15.913086
 40
15.913086
 10
26.824366
 20
169.208319
 30
0.0
 10
26.011752
 20
169.797587
 30
0.0
 10
24.611605
 20
170.812905
 30
0.0
 10
28.160106
 20
171.574972
 30
0.0
 10
31.142047
 20
170.649798
 30
0.0
 10
34.124089
 20
169.724537
 30
0.0
 10
37.672457
 20
170.486761
 30
0.0
 10
36.272398
 20
171.502166
 30
0.0
 10
35.459837
 20
172.091484
 30
0.0
 11
26.824366
 21
169.208319
 31
0.0
 11
25.401349
 21
170.750781
 31
0.0
 11
26.840594
 21
171.231265
 31
0.0
 11
31.142102
 21
170.649769
 31
0.0
 11
35.443492
 21
170.068303
 31
0.0
 11
36.882737
 21
170.548875
 31
0.0
 11
35.459837
 21
172.091484
 31
0.0
  0
LWPOLYLINE
  5
105
100
AcDbEntity
  8
0
 62
7
100
AcDbPolyline
 90
2
 70
0
 10
54.724655
 20
229.633228
 30
0.0
 10
46.162558
 20
223.412501
 30
0.0
  0
SPLINE
  5
106
100
AcDbEntity
  8
0
 62
1
100
AcDbSpline
 70
0
 71
3
 72
13
 73
9
 74
7
 40
0.000000
 40
0.000000
 40
0.000000
 40
0.000000
 40
2.387688
 40
3.622465
 40
6.747616
 40
9.872637
 40
11.107342
 40
13.494927
 40
13.494927
 40
13.494927
 40
13.494927
 10
46.162497
 20
223.412448
 30
0.0
 10
45.279468
 20
222.892346
 30
0.0
 10
43.939785
 20
222.103278
 30
0.0
 10
45.681376
 20
219.968454
 30
0.0
 10
48.339714
 20
220.415458
 30
0.0
 10
50.997995
 20
220.862680
 30
0.0
 10
52.739599
 20
218.728013
 30
0.0
 10
51.399993
 20
217.938945
 30
0.0
 10
50.517010
 20
217.418842
 30
0.0
 11
46.162497
 21
223.412448
 31
0.0
 11
44.501649
 21
221.697036
 31
0.0
 11
45.227401
 21
220.698058
 31
0.0
 11
48.339754
 21
220.415512
 31
0.0
 11
51.451989
 21
220.133114
 31
0.0
 11
52.177741
 21
219.134223
 31
0.0
 11
50.517010
 21
217.418842
 31
0.0
  0
SPLINE
  5
107
100
AcDbEntity
  8
0
 62
1
100
AcDbSpline
 70
0
 71
3
 72
10
 73
6
 74
4
 40
0.000000
 40
0.000000
 40
0.000000
 40
0.000000
 40
2.098666
 40
3.616013
 40
7.956533
 40
7.956533
 40
7.956533
 40
7.956533
 10
35.533391
 20
206.532560
 30
0.0
 10
34.721796
 20
205.941886
 30
0.0
 10
33.323414
 20
204.924150
 30
0.0
 10
33.695092
 20
208.534382
 30
0.0
 10
34.729871
 20
209.999120
 30
0.0
 10
35.496614
 20
211.084452
 30
0.0
 11
35.533391
 21
206.532560
 31
0.0
 11
33.626539
 21
205.656025
 31
0.0
 11
33.614280
 21
207.173322
 31
0.0
 11
35.496614
 21
211.084452
 31
0.0
  0
LWPOLYLINE
  5
108
100
AcDbEntity
  8
0
 62
7
100
AcDbPolyline
 90
2
 70
0
 10
50.517063
 20
217.419035
 30
0.0
 10
35.533402
 20
206.532762
 30
0.0
  0
LWPOLYLINE
  5
109
100
AcDbEntity
  8
0
 62
7
100
AcDbPolyline
 90
2
 70
0
 10
35.459940
 20
215.636595
 30
0.0
 10
5.492600
 20
193.864046
 30
0.0
  0
SPLINE
  5
10a
100
AcDbEntity
  8
0
 62
5
100
AcDbSpline
 70
0
 71
3
 72
10
 73
6
 74
4
 40
0.000000
 40
0.000000
 40
0.000000
 40
0.000000
 40
4.340575
 40
5.857922
 40
7.956530
 40
7.956530
 40
7.956530
 40
7.956530
 10
35.496614
 20
211.084452
 30
0.0
 10
36.263304
 20
212.169818
 30
0.0
 10
37.298008
 20
213.634597
 30
0.0
 10
37.669691
 20
217.244878
 30
0.0
 10
36.271381
 20
216.227060
 30
0.0
 10
35.459837
 20
215.636344
 30
0.0
 11
35.496614
 21
211.084452
 31
0.0
 11
37.378831
 21
214.995699
 31
0.0
 11
37.366572
 21
216.512996
 31
0.0
 11
35.459837
 21
215.636344
 31
0.0
  0
LWPOLYLINE
  5
10b
100
AcDbEntity
  8
0
 62
7
100
AcDbPolyline
 90
2
 70
0
 10
54.724655
 20
158.094866
 30
0.0
 10
56.745891
 20
164.315592
 30
0.0
  0
SPLINE
  5
10c
100
AcDbEntity
  8
0
 62
1
100
AcDbSpline
 70
0
 71
3
 72
13
 73
9
 74
7
 40
0.000000
 40
0.000000
 40
0.000000
 40
0.000000
 40
1.475644
 40
2.238751
 40
4.170082
 40
6.101514
 40
6.864622
 40
8.340282
 40
8.340282
 40
8.340282
 40
8.340282
 10
56.745831
 20
164.315380
 30
0.0
 10
56.998364
 20
164.896204
 30
0.0
 10
57.381492
 20
165.777393
 30
0.0
 10
55.735252
 20
166.212123
 30
0.0
 10
54.568558
 20
165.022831
 30
0.0
 10
53.401820
 20
163.833629
 30
0.0
 10
51.755523
 20
164.268358
 30
0.0
 10
52.138731
 20
165.149546
 30
0.0
 10
52.391318
 20
165.730371
 30
0.0
 11
56.745831
 21
164.315380
 31
0.0
 11
56.952999
 21
165.776409
 31
0.0
 11
56.227247
 21
166.012241
 31
0.0
 11
54.568574
 21
165.022876
 31
0.0
 11
52.909784
 21
164.033510
 31
0.0
 11
52.184032
 21
164.269342
 31
0.0
 11
52.391318
 21
165.730371
 31
0.0
  0
LWPOLYLINE
  5
10d
100
AcDbEntity
  8
0
 62
7
100
AcDbPolyline
 90
2
 70
0
 10
52.391384
 20
165.730458
 30
0.0
 10
55.928546
 20
176.616729
 30
0.0
  0
LWPOLYLINE
  5
10e
100
AcDbEntity
  8
0
 62
7
100
AcDbPolyline
 90
2
 70
0
 10
59.272440
 20
172.091502
 30
0.0
 10
66.346766
 20
193.864046
 30
0.0
  0
SPLINE
  5
10f
100
AcDbEntity
  8
0
 62
1
100
AcDbSpline
 70
0
 71
3
 72
13
 73
9
 74
7
 40
0.000000
 40
0.000000
 40
0.000000
 40
0.000000
 40
1.296899
 40
2.234694
 40
4.917307
 40
7.599869
 40
8.537594
 40
9.834678
 40
9.834678
 40
9.834678
 40
9.834678
 10
55.928533
 20
176.616652
 30
0.0
 10
56.119706
 20
177.206763
 30
0.0
 10
56.449117
 20
178.223587
 30
0.0
 10
57.574681
 20
176.283355
 30
0.0
 10
57.600497
 20
174.353987
 30
0.0
 10
57.626019
 20
172.424473
 30
0.0
 10
58.751703
 20
170.484394
 30
0.0
 10
59.081134
 20
171.501282
 30
0.0
 10
59.272337
 20
172.091484
 30
0.0
 11
55.928533
 21
176.616652
 31
0.0
 11
56.563386
 21
177.747540
 31
0.0
 11
57.120686
 21
176.993302
 31
0.0
 11
57.600435
 21
174.353936
 31
0.0
 11
58.080066
 21
171.714600
 31
0.0
 11
58.637366
 21
170.960449
 31
0.0
 11
59.272337
 21
172.091484
 31
0.0
  0
LWPOLYLINE
  5
110
100
AcDbEntity
  8
0
 62
7
100
AcDbPolyline
 90
2
 70
0
 10
54.724655
 20
229.633228
 30
0.0
 10
56.745891
 20
223.412501
 30
0.0
  0
SPLINE
  5
111
100
AcDbEntity
  8
0
 62
1
100
AcDbSpline
 70
0
 71
3
 72
13
 73
9
 74
7
 40
0.000000
 40
0.000000
 40
0.000000
 40
0.000000
 40
1.475628
 40
2.238708
 40
4.170065
 40
6.101510
 40
6.864618
 40
8.340275
 40
8.340275
 40
8.340275
 40
8.340275
 10
56.745831
 20
223.412448
 30
0.0
 10
56.882854
 20
222.794093
 30
0.0
 10
57.090735
 20
221.855973
 30
0.0
 10
58.678123
 20
222.471819
 30
0.0
 10
58.923145
 20
224.119709
 30
0.0
 10
59.167913
 20
225.767617
 30
0.0
 10
60.755304
 20
226.383669
 30
0.0
 10
60.963267
 20
225.445535
 30
0.0
 10
61.100343
 20
224.827175
 30
0.0
 11
56.745831
 21
223.412448
 31
0.0
 11
57.436834
 21
222.108610
 31
0.0
 11
58.162586
 21
222.344354
 31
0.0
 11
58.923087
 21
224.119679
 31
0.0
 11
59.683470
 21
225.895151
 31
0.0
 11
60.409222
 21
226.130983
 31
0.0
 11
61.100343
 21
224.827175
 31
0.0
  0
LWPOLYLINE
  5
112
100
AcDbEntity
  8
0
 62
7
100
AcDbPolyline
 90
2
 70
0
 10
61.100396
 20
224.827368
 30
0.0
 10
64.637568
 20
213.941089
 30
0.0
  0
LWPOLYLINE
  5
113
100
AcDbEntity
  8
0
 62
7
100
AcDbPolyline
 90
2
 70
0
 10
59.272440
 20
215.636595
 30
0.0
 10
66.346766
 20
193.864046
 30
0.0
  0
SPLINE
  5
114
100
AcDbEntity
  8
0
 62
1
100
AcDbSpline
 70
0
 71
3
 72
13
 73
9
 74
7
 40
0.000000
 40
0.000000
 40
0.000000
 40
0.000000
 40
1.296932
 40
2.234721
 40
4.917246
 40
7.599937
 40
8.537726
 40
9.834788
 40
9.834788
 40
9.834788
 40
9.834788
 10
64.637558
 20
213.940894
 30
0.0
 10
64.829721
 20
213.351100
 30
0.0
 10
65.160834
 20
212.334837
 30
0.0
 10
63.109819
 20
213.242799
 30
0.0
 10
61.954913
 20
214.788652
 30
0.0
 10
60.800026
 20
216.334539
 30
0.0
 10
58.748887
 20
217.242522
 30
0.0
 10
59.080105
 20
216.226198
 30
0.0
 10
59.272337
 20
215.636344
 30
0.0
 11
64.637558
 21
213.940894
 31
0.0
 11
64.788576
 21
212.652784
 31
0.0
 11
63.894372
 21
212.935359
 31
0.0
 11
61.954947
 21
214.788619
 31
0.0
 11
60.015404
 21
216.641995
 31
0.0
 11
59.121201
 21
216.924570
 31
0.0
 11
59.272337
 21
215.636344
 31
0.0
  0
LWPOLYLINE
  5
115
100
AcDbEntity
  8
0
 62
7
100
AcDbPolyline
 90
2
 70
0
 10
126.956397
 20
158.094866
 30
0.0
 10
118.394300
 20
164.315592
 30
0.0
  0
SPLINE
  5
116
100
AcDbEntity
  8
0
 62
1
100
AcDbSpline
 70
0
 71
3
 72
13
 73
9
 74
7
 40
0.000000
 40
0.000000
 40
0.000000
 40
0.000000
 40
2.387681
 40
3.622387
 40
6.747469
 40
9.872526
 40
11.107232
 40
13.494807
 40
13.494807
 40
13.494807
 40
13.494807
 10
118.394239
 20
164.315380
 30
0.0
 10
117.626718
 20
164.994474
 30
0.0
 10
116.462300
 20
166.024738
 30
0.0
 10
114.970205
 20
163.708718
 30
0.0
 10
116.217026
 20
161.318725
 30
0.0
 10
117.463621
 20
158.928696
 30
0.0
 10
115.971577
 20
156.612700
 30
0.0
 10
114.807206
 20
157.642958
 30
0.0
 10
114.039727
 20
158.322038
 30
0.0
 11
118.394239
 21
164.315380
 31
0.0
 11
116.249556
 21
165.364835
 31
0.0
 11
115.523804
 21
164.365945
 31
0.0
 11
116.216983
 21
161.318709
 31
0.0
 11
116.910045
 21
158.271473
 31
0.0
 11
116.184292
 21
157.272583
 31
0.0
 11
114.039727
 21
158.322038
 31
0.0
  0
LWPOLYLINE
  5
117
100
AcDbEntity
  8
0
 62
7
100
AcDbPolyline
 90
2
 70
0
 10
114.039793
 20
158.322125
 30
0.0
 10
99.056122
 20
169.208396
 30
0.0
  0
LWPOLYLINE
  5
118
100
AcDbEntity
  8
0
 62
7
100
AcDbPolyline
 90
2
 70
0
 10
107.691682
 20
172.091502
 30
0.0
 10
77.724342
 20
193.864046
 30
0.0
  0
SPLINE
  5
119
100
AcDbEntity
  8
0
 62
1
100
AcDbSpline
 70
0
 71
3
 72
13
 73
9
 74
7
 40
0.000000
 40
0.000000
 40
0.000000
 40
0.000000
 40
2.098611
 40
3.615941
 40
7.956575
 40
12.297089
 40
13.814447
 40
15.913086
 40
15.913086
 40
15.913086
 40
15.913086
 10
99.056108
 20
169.208319
 30
0.0
 10
98.243494
 20
169.797587
 30
0.0
 10
96.843347
 20
170.812905
 30
0.0
 10
100.391848
 20
171.574972
 30
0.0
 10
103.373789
 20
170.649798
 30
0.0
 10
106.355831
 20
169.724537
 30
0.0
 10
109.904199
 20
170.486761
 30
0.0
 10
108.504140
 20
171.502166
 30
0.0
 10
107.691579
 20
172.091484
 30
0.0
 11
99.056108
 21
169.208319
 31
0.0
 11
97.633091
 21
170.750781
 31
0.0
 11
99.072336
 21
171.231265
 31
0.0
 11
103.373844
 21
170.649769
 31
0.0
 11
107.675234
 21
170.068303
 31
0.0
 11
109.114479
 21
170.548875
 31
0.0
 11
107.691579
 21
172.091484
 31
0.0
  0
LWPOLYLINE
  5
11a
100
AcDbEntity
  8
0
 62
7
100
AcDbPolyline
 90
2
 70
0
 10
126.956397
 20
229.633228
 30
0.0
 10
118.394300
 20
223.412501
 30
0.0
  0
SPLINE
  5
11b
100
AcDbEntity
  8
0
 62
1
100
AcDbSpline
 70
0
 71
3
 72
13
 73
9
 74
7
 40
0.000000
 40
0.000000
 40
0.000000
 40
0.000000
 40
2.387688
 40
3.622465
 40
6.747616
 40
9.872637
 40
11.107342
 40
13.494927
 40
13.494927
 40
13.494927
 40
13.494927
 10
118.394239
 20
223.412448
 30
0.0
 10
117.511210
 20
222.892346
 30
0.0
 10
116.171527
 20
222.103278
 30
0.0
 10
117.913118
 20
219.968454
 30
0.0
 10
120.571456
 20
220.415458
 30
0.0
 10
123.229737
 20
220.862680
 30
0.0
 10
124.971341
 20
218.728013
 30
0.0
 10
123.631735
 20
217.938945
 30
0.0
 10
122.748752
 20
217.418842
 30
0.0
 11
118.394239
 21
223.412448
 31
0.0
 11
116.733391
 21
221.697036
 31
0.0
 11
117.459143
 21
220.698058
 31
0.0
 11
120.571496
 21
220.415512
 31
0.0
 11
123.683731
 21
220.133114
 31
0.0
 11
124.409483
 21
219.134223
 31
0.0
 11
122.748752
 21
217.418842
 31
0.0
  0
SPLINE
  5
11c
100
AcDbEntity
  8
0
 62
1
100
AcDbSpline
 70
0
 71
3
 72
10
 73
6
 74
4
 40
0.000000
 40
0.000000
 40
0.000000
 40
0.000000
 40
2.098666
 40
3.616013
 40
7.956533
 40
7.956533
 40
7.956533
 40
7.956533
 10
107.765133
 20
206.532560
 30
0.0
 10
106.953538
 20
205.941886
 30
0.0
 10
105.555156
 20
204.924150
 30
0.0
 10
105.926834
 20
208.534382
 30
0.0
 10
106.961613
 20
209.999120
 30
0.0
 10
107.728356
 20
211.084452
 30
0.0
 11
107.765133
 21
206.532560
 31
0.0
 11
105.858281
 21
205.656025
 31
0.0
 11
105.846022
 21
207.173322
 31
0.0
 11
107.728356
 21
211.084452
 31
0.0
  0
LWPOLYLINE
  5
11d
100
AcDbEntity
  8
0
 62
7
100
AcDbPolyline
 90
2
 70
0
 10
122.748805
 20
217.419035
 30
0.0
 10
107.765144
 20
206.532762
 30
0.0
  0
LWPOLYLINE
  5
11e
100
AcDbEntity
  8
0
 62
7
100
AcDbPolyline
 90
2
 70
0
 10
107.691682
 20
215.636595
 30
0.0
 10
77.724342
 20
193.864046
 30
0.0
  0
SPLINE
  5
11f
100
AcDbEntity
  8
0
 62
5
100
AcDbSpline
 70
0
 71
3
 72
10
 73
6
 74
4
 40
0.000000
 40
0.000000
 40
0.000000
 40
0.000000
 40
4.340575
 40
5.857922
 40
7.956530
 40
7.956530
 40
7.956530
 40
7.956530
 10
107.728356
 20
211.084452
 30
0.0
 10
108.495046
 20
212.169818
 30
0.0
 10
109.529750
 20
213.634597
 30
0.0
 10
109.901433
 20
217.244878
 30
0.0
 10
108.503123
 20
216.227060
 30
0.0
 10
107.691579
 20
215.636344
 30
0.0
 11
107.728356
 21
211.084452
 31
0.0
 11
109.610573
 21
214.995699
 31
0.0
 11
109.598314
 21
216.512996
 31
0.0
 11
107.691579
 21
215.636344
 31
0.0
  0
LWPOLYLINE
  5
120
100
AcDbEntity
  8
0
 62
7
100
AcDbPolyline
 90
2
 70
0
 10
126.956397
 20
158.094866
 30
0.0
 10
128.977633
 20
164.315592
 30
0.0
  0
SPLINE
  5
121
100
AcDbEntity
  8
0
 62
1
100
AcDbSpline
 70
0
 71
3
 72
13
 73
9
 74
7
 40
0.000000
 40
0.000000
 40
0.000000
 40
0.000000
 40
1.475644
 40
2.238751
 40
4.170082
 40
6.101514
 40
6.864622
 40
8.340282
 40
8.340282
 40
8.340282
 40
8.340282
 10
128.977573
 20
164.315380
 30
0.0
 10
129.230106
 20
164.896204
 30
0.0
 10
129.613234
 20
165.777393
 30
0.0
 10
127.966994
 20
166.212123
 30
0.0
 10
126.800300
 20
165.022831
 30
0.0
 10
125.633562
 20
163.833629
 30
0.0
 10
123.987265
 20
164.268358
 30
0.0
 10
124.370473
 20
165.149546
 30
0.0
 10
124.623060
 20
165.730371
 30
0.0
 11
128.977573
 21
164.315380
 31
0.0
 11
129.184741
 21
165.776409
 31
0.0
 11
128.458989
 21
166.012241
 31
0.0
 11
126.800316
 21
165.022876
 31
0.0
 11
125.141526
 21
164.033510
 31
0.0
 11
124.415774
 21
164.269342
 31
0.0
 11
124.623060
 21
165.730371
 31
0.0
  0
LWPOLYLINE
  5
122
100
AcDbEntity
  8
0
 62
7
100
AcDbPolyline
 90
2
 70
0
 10
124.623126
 20
165.730458
 30
0.0
 10
128.160288
 20
176.616729
 30
0.0
  0
LWPOLYLINE
  5
123
100
AcDbEntity
  8
0
 62
7
100
AcDbPolyline
 90
2
 70
0
 10
131.504182
 20
172.091502
 30
0.0
 10
138.578508
 20
193.864046
 30
0.0
  0
SPLINE
  5
124
100
AcDbEntity
  8
0
 62
1
100
AcDbSpline
 70
0
 71
3
 72
13
 73
9
 74
7
 40
0.000000
 40
0.000000
 40
0.000000
 40
0.000000
 40
1.296899
 40
2.234694
 40
4.917307
 40
7.599869
 40
8.537594
 40
9.834678
 40
9.834678
 40
9.834678
 40
9.834678
 10
128.160275
 20
176.616652
 30
0.0
 10
128.351448
 20
177.206763
 30
0.0
 10
128.680859
 20
178.223587
 30
0.0
 10
129.806423
 20
176.283355
 30
0.0
 10
129.832239
 20
174.353987
 30
0.0
 10
129.857761
 20
172.424473
 30
0.0
 10
130.983445
 20
170.484394
 30
0.0
 10
131.312876
 20
171.501282
 30
0.0
 10
131.504079
 20
172.091484
 30
0.0
 11
128.160275
 21
176.616652
 31
0.0
 11
128.795128
 21
177.747540
 31
0.0
 11
129.352428
 21
176.993302
 31
0.0
 11
129.832177
 21
174.353936
 31
0.0
 11
130.311808
 21
171.714600
 31
0.0
 11
130.869108
 21
170.960449
 31
0.0
 11
131.504079
 21
172.091484
 31
0.0
  0
LWPOLYLINE
  5
125
100
AcDbEntity
  8
0
 62
7
100
AcDbPolyline
 90
2
 70
0
 10
126.956397
 20
229.633228
 30
0.0
 10
128.977633
 20
223.412501
 30
0.0
  0
SPLINE
  5
126
100
AcDbEntity
  8
0
 62
1
100
AcDbSpline
 70
0
 71
3
 72
13
 73
9
 74
7
 40
0.000000
 40
0.000000
 40
0.000000
 40
0.000000
 40
1.475628
 40
2.238708
 40
4.170065
 40
6.101510
 40
6.864618
 40
8.340275
 40
8.340275
 40
8.340275
 40
8.340275
 10
128.977573
 20
223.412448
 30
0.0
 10
129.114596
 20
222.794093
 30
0.0
 10
129.322477
 20
221.855973
 30
0.0
 10
130.909865
 20
222.471819
 30
0.0
 10
131.154887
 20
224.119709
 30
0.0
 10
131.399655
 20
225.767617
 30
0.0
 10
132.987046
 20
226.383669
 30
0.0
 10
133.195009
 20
225.445535
 30
0.0
 10
133.332085
 20
224.827175
 30
0.0
 11
128.977573
 21
223.412448
 31
0.0
 11
129.668576
 21
222.108610
 31
0.0
 11
130.394328
 21
222.344354
 31
0.0
 11
131.154829
 21
224.119679
 31
0.0
 11
131.915212
 21
225.895151
 31
0.0
 11
132.640964
 21
226.130983
 31
0.0
 11
133.332085
 21
224.827175
 31
0.0
  0
LWPOLYLINE
  5
127
100
AcDbEntity
  8
0
 62
7
100
AcDbPolyline
 90
2
 70
0
 10
133.332138
 20
224.827368
 30
0.0
 10
136.869310
 20
213.941089
 30
0.0
  0
SPLINE
  5
128
100
AcDbEntity
  8
0
 62
1
100
AcDbSpline
 70
0
 71
3
 72
13
 73
9
 74
7
 40
0.000000
 40
0.000000
 40
0.000000
 40
0.000000
 40
1.296932
 40
2.234721
 40
4.917246
 40
7.599937
 40
8.537726
 40
9.834788
 40
9.834788
 40
9.834788
 40
9.834788
 10
136.869300
 20
213.940894
 30
0.0
 10
137.061463
 20
213.351100
 30
0.0
 10
137.392576
 20
212.334837
 30
0.0
 10
135.341561
 20
213.242799
 30
0.0
 10
134.186655
 20
214.788652
 30
0.0
 10
133.031768
 20
216.334539
 30
0.0
 10
130.980629
 20
217.242522
 30
0.0
 10
131.311847
 20
216.226198
 30
0.0
 10
131.504079
 20
215.636344
 30
0.0
 11
136.869300
 21
213.940894
 31
0.0
 11
137.020318
 21
212.652784
 31
0.0
 11
136.126114
 21
212.935359
 31
0.0
 11
134.186689
 21
214.788619
 31
0.0
 11
132.247146
 21
216.641995
 31
0.0
 11
131.352943
 21
216.924570
 31
0.0
 11
131.504079
 21
215.636344
 31
0.0
  0
LWPOLYLINE
  5
129
100
AcDbEntity
  8
0
 62
7
100
AcDbPolyline
 90
2
 70
0
 10
131.504182
 20
215.636595
 30
0.0
 10
138.578508
 20
193.864046
 30
0.0
  0
ENDSEC
  0
SECTION
  2
OBJECTS
  0
DICTIONARY
  5
C
330
0
100
AcDbDictionary
  3
ACAD_GROUP
350
D
  3
ACAD_MLINESTYLE
350
17
  0
DICTIONARY
  5
D
330
C
100
AcDbDictionary
  0
DICTIONARY
  5
1A
330
C
100
AcDbDictionary
  0
DICTIONARY
  5
17
330
C
100
AcDbDictionary
  3
STANDARD
350
18
  0
DICTIONARY
  5
19
330
C
100
AcDbDictionary
  0
ENDSEC
  0
EOF
