  0
SECTION
  2
HEADER
  9
$ACADVER
  1
AC1014
  9
$HANDSEED
  5
FFFF
  9
$MEASUREMENT
 70
     1
  0
ENDSEC
  0
SECTION
  2
TABLES
  0
TABLE
  2
VPORT
  5
8
330
0
100
AcDbSymbolTable
 70
     4
  0
VPORT
  5
2E
330
8
100
AcDbSymbolTableRecord
100
AcDbViewportTableRecord
  2
*ACTIVE
 70
     0
 10
0.0
 20
0.0
 11
1.0
 21
1.0
 12
210.0
 22
148.5
 13
0.0
 23
0.0
 14
10.0
 24
10.0
 15
10.0
 25
10.0
 16
0.0
 26
0.0
 36
1.0
 17
0.0
 27
0.0
 37
0.0
 40
341.0
 41
1.24
 42
50.0
 43
0.0
 44
0.0
 50
0.0
 51
0.0
 71
     0
 72
   100
 73
     1
 74
     3
 75
     0
 76
     0
 77
     0
 78
     0
  0
ENDTAB
  0
TABLE
  2
LTYPE
  5
5
330
0
100
AcDbSymbolTable
 70
     1
  0
LTYPE
  5
14
330
5
100
AcDbSymbolTableRecord
100
AcDbLinetypeTableRecord
  2
BYBLOCK
 70
     0
  3

 72
    65
 73
     0
 40
0.0
  0
LTYPE
  5
15
330
5
100
AcDbSymbolTableRecord
100
AcDbLinetypeTableRecord
  2
BYLAYER
 70
     0
  3

 72
    65
 73
     0
 40
0.0
  0
LTYPE
  5
16
330
5
100
AcDbSymbolTableRecord
100
AcDbLinetypeTableRecord
  2
CONTINUOUS
 70
     0
  3
Solid line
 72
    65
 73
     0
 40
0.0
  0
ENDTAB
  0
TABLE
  2
LAYER
  5
2
100
AcDbSymbolTable
 70
2
  0
LAYER
  5
50
100
AcDbSymbolTableRecord
100
AcDbLayerTableRecord
  2
0
 70
0
  6
CONTINUOUS
  0
LAYER
  5
51
100
AcDbSymbolTableRecord
100
AcDbLayerTableRecord
  2
Layer_1
 70
0
  6
CONTINUOUS
  0
ENDTAB
  0
TABLE
  2
STYLE
  5
3
330
0
100
AcDbSymbolTable
 70
     1
  0
STYLE
  5
11
330
3
100
AcDbSymbolTableRecord
100
AcDbTextStyleTableRecord
  2
STANDARD
 70
     0
 40
0.0
 41
1.0
 50
0.0
 71
     0
 42
2.5
  3
txt
  4

  0
ENDTAB
  0
TABLE
  2
VIEW
  5
6
330
0
100
AcDbSymbolTable
 70
     0
  0
ENDTAB
  0
TABLE
  2
UCS
  5
7
330
0
100
AcDbSymbolTable
 70
     0
  0
ENDTAB
  0
TABLE
  2
APPID
  5
9
330
0
100
AcDbSymbolTable
 70
     2
  0
APPID
  5
12
330
9
100
AcDbSymbolTableRecord
100
AcDbRegAppTableRecord
  2
ACAD
 70
     0
  0
ENDTAB
  0
TABLE
  2
DIMSTYLE
  5
A
330
0
100
AcDbSymbolTable
 70
     1
  0
DIMSTYLE
105
27
330
A
100
AcDbSymbolTableRecord
100
AcDbDimStyleTableRecord
  2
ISO-25
 70
     0
  3

  4

  5

  6

  7

 40
1.0
 41
2.5
 42
0.625
 43
3.75
 44
1.25
 45
0.0
 46
0.0
 47
0.0
 48
0.0
140
2.5
141
2.5
142
0.0
143
0.03937007874016
144
1.0
145
0.0
146
1.0
147
0.625
 71
     0
 72
     0
 73
     0
 74
     0
 75
     0
 76
     0
 77
     1
 78
     8
170
     0
171
     3
172
     1
173
     0
174
     0
175
     0
176
     0
177
     0
178
     0
270
     2
271
     2
272
     2
273
     2
274
     3
340
11
275
     0
280
     0
281
     0
282
     0
283
     0
284
     8
285
     0
286
     0
287
     3
288
     0
  0
ENDTAB
  0
TABLE
  2
BLOCK_RECORD
  5
1
330
0
100
AcDbSymbolTable
 70
     1
  0
BLOCK_RECORD
  5
1F
330
1
100
AcDbSymbolTableRecord
100
AcDbBlockTableRecord
  2
*MODEL_SPACE
  0
BLOCK_RECORD
  5
1B
330
1
100
AcDbSymbolTableRecord
100
AcDbBlockTableRecord
  2
*PAPER_SPACE
  0
ENDTAB
  0
ENDSEC
  0
SECTION
  2
BLOCKS
  0
BLOCK
  5
20
330
1F
100
AcDbEntity
  8
0
100
AcDbBlockBegin
  2
*MODEL_SPACE
 70
     0
 10
0.0
 20
0.0
 30
0.0
  3
*MODEL_SPACE
  1

  0
ENDBLK
  5
21
330
1F
100
AcDbEntity
  8
0
100
AcDbBlockEnd
  0
BLOCK
  5
1C
330
1B
100
AcDbEntity
 67
     1
  8
0
100
AcDbBlockBegin
  2
*PAPER_SPACE
  1

  0
ENDBLK
  5
1D
330
1B
100
AcDbEntity
 67
     1
  8
0
100
AcDbBlockEnd
  0
ENDSEC
  0
SECTION
  2
ENTITIES
  0
LWPOLYLINE
  5
100
100
AcDbEntity
  8
Layer_1
 62
7
100
AcDbPolyline
 90
2
 70
0
 10
1.182021
 20
151.040906
 30
0.0
 10
-7.380076
 20
157.261632
 30
0.0
  0
SPLINE
  5
101
100
AcDbEntity
  8
Layer_1
 62
1
100
AcDbSpline
 70
0
 71
3
 72
13
 73
9
 74
7
 40
0.000000
 40
0.000000
 40
0.000000
 40
0.000000
 40
2.387681
 40
3.622387
 40
6.747469
 40
9.872526
 40
11.107232
 40
13.494807
 40
13.494807
 40
13.494807
 40
13.494807
 10
-7.380137
 20
157.261420
 30
0.0
 10
-8.147658
 20
157.940514
 30
0.0
 10
-9.312076
 20
158.970778
 30
0.0
 10
-10.804171
 20
156.654758
 30
0.0
 10
-9.557350
 20
154.264765
 30
0.0
 10
-8.310755
 20
151.874736
 30
0.0
 10
-9.802799
 20
149.558740
 30
0.0
 10
-10.967170
 20
150.588998
 30
0.0
 10
-11.734649
 20
151.268078
 30
0.0
 11
-7.380137
 21
157.261420
 31
0.0
 11
-9.524820
 21
158.310875
 31
0.0
 11
-10.250572
 21
157.311985
 31
0.0
 11
-9.557393
 21
154.264749
 31
0.0
 11
-8.864331
 21
151.217513
 31
0.0
 11
-9.590084
 21
150.218623
 31
0.0
 11
-11.734649
 21
151.268078
 31
0.0
  0
LWPOLYLINE
  5
102
100
AcDbEntity
  8
Layer_1
 62
7
100
AcDbPolyline
 90
2
 70
0
 10
-11.734583
 20
151.268165
 30
0.0
 10
-26.718254
 20
162.154436
 30
0.0
  0
LWPOLYLINE
  5
103
100
AcDbEntity
  8
Layer_1
 62
7
100
AcDbPolyline
 90
2
 70
0
 10
-18.082694
 20
165.037542
 30
0.0
 10
-48.050034
 20
186.810086
 30
0.0
  0
SPLINE
  5
104
100
AcDbEntity
  8
Layer_1
 62
1
100
AcDbSpline
 70
0
 71
3
 72
13
 73
9
 74
7
 40
0.000000
 40
0.000000
 40
0.000000
 40
0.000000
 40
2.098611
 40
3.615941
 40
7.956575
 40
12.297089
 40
13.814447
 40
15.913086
 40
15.913086
 40
15.913086
 40
15.913086
 10
-26.718268
 20
162.154359
 30
0.0
 10
-27.530882
 20
162.743627
 30
0.0
 10
-28.931029
 20
163.758945
 30
0.0
 10
-25.382528
 20
164.521012
 30
0.0
 10
-22.400587
 20
163.595838
 30
0.0
 10
-19.418545
 20
162.670577
 30
0.0
 10
-15.870177
 20
163.432801
 30
0.0
 10
-17.270236
 20
164.448206
 30
0.0
 10
-18.082797
 20
165.037524
 30
0.0
 11
-26.718268
 21
162.154359
 31
0.0
 11
-28.141285
 21
163.696821
 31
0.0
 11
-26.702040
 21
164.177305
 31
0.0
 11
-22.400532
 21
163.595809
 31
0.0
 11
-18.099142
 21
163.014343
 31
0.0
 11
-16.659897
 21
163.494915
 31
0.0
 11
-18.082797
 21
165.037524
 31
0.0
  0
LWPOLYLINE
  5
105
100
AcDbEntity
  8
Layer_1
 62
7
100
AcDbPolyline
 90
2
 70
0
 10
1.182021
 20
222.579268
 30
0.0
 10
-7.380076
 20
216.358541
 30
0.0
  0
SPLINE
  5
106
100
AcDbEntity
  8
Layer_1
 62
1
100
AcDbSpline
 70
0
 71
3
 72
13
 73
9
 74
7
 40
0.000000
 40
0.000000
 40
0.000000
 40
0.000000
 40
2.387688
 40
3.622465
 40
6.747616
 40
9.872637
 40
11.107342
 40
13.494927
 40
13.494927
 40
13.494927
 40
13.494927
 10
-7.380137
 20
216.358488
 30
0.0
 10
-8.263166
 20
215.838386
 30
0.0
 10
-9.602849
 20
215.049318
 30
0.0
 10
-7.861258
 20
212.914494
 30
0.0
 10
-5.202920
 20
213.361498
 30
0.0
 10
-2.544639
 20
213.808720
 30
0.0
 10
-0.803035
 20
211.674053
 30
0.0
 10
-2.142641
 20
210.884985
 30
0.0
 10
-3.025624
 20
210.364882
 30
0.0
 11
-7.380137
 21
216.358488
 31
0.0
 11
-9.040985
 21
214.643076
 31
0.0
 11
-8.315233
 21
213.644098
 31
0.0
 11
-5.202880
 21
213.361552
 31
0.0
 11
-2.090645
 21
213.079154
 31
0.0
 11
-1.364893
 21
212.080263
 31
0.0
 11
-3.025624
 21
210.364882
 31
0.0
  0
SPLINE
  5
107
100
AcDbEntity
  8
Layer_1
 62
1
100
AcDbSpline
 70
0
 71
3
 72
10
 73
6
 74
4
 40
0.000000
 40
0.000000
 40
0.000000
 40
0.000000
 40
2.098666
 40
3.616013
 40
7.956533
 40
7.956533
 40
7.956533
 40
7.956533
 10
-18.009243
 20
199.478600
 30
0.0
 10
-18.820838
 20
198.887926
 30
0.0
 10
-20.219220
 20
197.870190
 30
0.0
 10
-19.847542
 20
201.480422
 30
0.0
 10
-18.812763
 20
202.945160
 30
0.0
 10
-18.046020
 20
204.030492
 30
0.0
 11
-18.009243
 21
199.478600
 31
0.0
 11
-19.916095
 21
198.602065
 31
0.0
 11
-19.928354
 21
200.119362
 31
0.0
 11
-18.046020
 21
204.030492
 31
0.0
  0
LWPOLYLINE
  5
108
100
AcDbEntity
  8
Layer_1
 62
7
100
AcDbPolyline
 90
2
 70
0
 10
-3.025571
 20
210.365075
 30
0.0
 10
-18.009232
 20
199.478802
 30
0.0
  0
LWPOLYLINE
  5
109
100
AcDbEntity
  8
Layer_1
 62
7
100
AcDbPolyline
 90
2
 70
0
 10
-18.082694
 20
208.582635
 30
0.0
 10
-48.050034
 20
186.810086
 30
0.0
  0
SPLINE
  5
10a
100
AcDbEntity
  8
Layer_1
 62
5
100
AcDbSpline
 70
0
 71
3
 72
10
 73
6
 74
4
 40
0.000000
 40
0.000000
 40
0.000000
 40
0.000000
 40
4.340575
 40
5.857922
 40
7.956530
 40
7.956530
 40
7.956530
 40
7.956530
 10
-18.046020
 20
204.030492
 30
0.0
 10
-17.279330
 20
205.115858
 30
0.0
 10
-16.244626
 20
206.580637
 30
0.0
 10
-15.872943
 20
210.190918
 30
0.0
 10
-17.271253
 20
209.173100
 30
0.0
 10
-18.082797
 20
208.582384
 30
0.0
 11
-18.046020
 21
204.030492
 31
0.0
 11
-16.163803
 21
207.941739
 31
0.0
 11
-16.176062
 21
209.459036
 31
0.0
 11
-18.082797
 21
208.582384
 31
0.0
  0
LWPOLYLINE
  5
10b
100
AcDbEntity
  8
Layer_1
 62
7
100
AcDbPolyline
 90
2
 70
0
 10
1.182021
 20
151.040906
 30
0.0
 10
3.203257
 20
157.261632
 30
0.0
  0
SPLINE
  5
10c
100
AcDbEntity
  8
Layer_1
 62
1
100
AcDbSpline
 70
0
 71
3
 72
13
 73
9
 74
7
 40
0.000000
 40
0.000000
 40
0.000000
 40
0.000000
 40
1.475644
 40
2.238751
 40
4.170082
 40
6.101514
 40
6.864622
 40
8.340282
 40
8.340282
 40
8.340282
 40
8.340282
 10
3.203197
 20
157.261420
 30
0.0
 10
3.455730
 20
157.842244
 30
0.0
 10
3.838858
 20
158.723433
 30
0.0
 10
2.192618
 20
159.158163
 30
0.0
 10
1.025924
 20
157.968871
 30
0.0
 10
-0.140814
 20
156.779669
 30
0.0
 10
-1.787111
 20
157.214398
 30
0.0
 10
-1.403903
 20
158.095586
 30
0.0
 10
-1.151316
 20
158.676411
 30
0.0
 11
3.203197
 21
157.261420
 31
0.0
 11
3.410365
 21
158.722449
 31
0.0
 11
2.684613
 21
158.958281
 31
0.0
 11
1.025940
 21
157.968916
 31
0.0
 11
-0.632850
 21
156.979550
 31
0.0
 11
-1.358602
 21
157.215382
 31
0.0
 11
-1.151316
 21
158.676411
 31
0.0
  0
LWPOLYLINE
  5
10d
100
AcDbEntity
  8
Layer_1
 62
7
100
AcDbPolyline
 90
2
 70
0
 10
-1.151250
 20
158.676498
 30
0.0
 10
2.385912
 20
169.562769
 30
0.0
  0
LWPOLYLINE
  5
10e
100
AcDbEntity
  8
Layer_1
 62
7
100
AcDbPolyline
 90
2
 70
0
 10
5.729806
 20
165.037542
 30
0.0
 10
12.804132
 20
186.810086
 30
0.0
  0
SPLINE
  5
10f
100
AcDbEntity
  8
Layer_1
 62
1
100
AcDbSpline
 70
0
 71
3
 72
13
 73
9
 74
7
 40
0.000000
 40
0.000000
 40
0.000000
 40
0.000000
 40
1.296899
 40
2.234694
 40
4.917307
 40
7.599869
 40
8.537594
 40
9.834678
 40
9.834678
 40
9.834678
 40
9.834678
 10
2.385899
 20
169.562692
 30
0.0
 10
2.577072
 20
170.152803
 30
0.0
 10
2.906483
 20
171.169627
 30
0.0
 10
4.032047
 20
169.229395
 30
0.0
 10
4.057863
 20
167.300027
 30
0.0
 10
4.083385
 20
165.370513
 30
0.0
 10
5.209069
 20
163.430434
 30
0.0
 10
5.538500
 20
164.447322
 30
0.0
 10
5.729703
 20
165.037524
 30
0.0
 11
2.385899
 21
169.562692
 31
0.0
 11
3.020752
 21
170.693580
 31
0.0
 11
3.578052
 21
169.939342
 31
0.0
 11
4.057801
 21
167.299976
 31
0.0
 11
4.537432
 21
164.660640
 31
0.0
 11
5.094732
 21
163.906489
 31
0.0
 11
5.729703
 21
165.037524
 31
0.0
  0
LWPOLYLINE
  5
110
100
AcDbEntity
  8
Layer_1
 62
7
100
AcDbPolyline
 90
2
 70
0
 10
1.182021
 20
222.579268
 30
0.0
 10
3.203257
 20
216.358541
 30
0.0
  0
SPLINE
  5
111
100
AcDbEntity
  8
Layer_1
 62
1
100
AcDbSpline
 70
0
 71
3
 72
13
 73
9
 74
7
 40
0.000000
 40
0.000000
 40
0.000000
 40
0.000000
 40
1.475628
 40
2.238708
 40
4.170065
 40
6.101510
 40
6.864618
 40
8.340275
 40
8.340275
 40
8.340275
 40
8.340275
 10
3.203197
 20
216.358488
 30
0.0
 10
3.340220
 20
215.740133
 30
0.0
 10
3.548101
 20
214.802013
 30
0.0
 10
5.135489
 20
215.417859
 30
0.0
 10
5.380511
 20
217.065749
 30
0.0
 10
5.625279
 20
218.713657
 30
0.0
 10
7.212670
 20
219.329709
 30
0.0
 10
7.420633
 20
218.391575
 30
0.0
 10
7.557709
 20
217.773215
 30
0.0
 11
3.203197
 21
216.358488
 31
0.0
 11
3.894200
 21
215.054650
 31
0.0
 11
4.619952
 21
215.290394
 31
0.0
 11
5.380453
 21
217.065719
 31
0.0
 11
6.140836
 21
218.841191
 31
0.0
 11
6.866588
 21
219.077023
 31
0.0
 11
7.557709
 21
217.773215
 31
0.0
  0
LWPOLYLINE
  5
112
100
AcDbEntity
  8
Layer_1
 62
7
100
AcDbPolyline
 90
2
 70
0
 10
7.557762
 20
217.773408
 30
0.0
 10
11.094934
 20
206.887129
 30
0.0
  0
LWPOLYLINE
  5
113
100
AcDbEntity
  8
Layer_1
 62
7
100
AcDbPolyline
 90
2
 70
0
 10
5.729806
 20
208.582635
 30
0.0
 10
12.804132
 20
186.810086
 30
0.0
  0
SPLINE
  5
114
100
AcDbEntity
  8
Layer_1
 62
1
100
AcDbSpline
 70
0
 71
3
 72
13
 73
9
 74
7
 40
0.000000
 40
0.000000
 40
0.000000
 40
0.000000
 40
1.296932
 40
2.234721
 40
4.917246
 40
7.599937
 40
8.537726
 40
9.834788
 40
9.834788
 40
9.834788
 40
9.834788
 10
11.094924
 20
206.886934
 30
0.0
 10
11.287087
 20
206.297140
 30
0.0
 10
11.618200
 20
205.280877
 30
0.0
 10
9.567185
 20
206.188839
 30
0.0
 10
8.412279
 20
207.734692
 30
0.0
 10
7.257392
 20
209.280579
 30
0.0
 10
5.206253
 20
210.188562
 30
0.0
 10
5.537471
 20
209.172238
 30
0.0
 10
5.729703
 20
208.582384
 30
0.0
 11
11.094924
 21
206.886934
 31
0.0
 11
11.245942
 21
205.598824
 31
0.0
 11
10.351738
 21
205.881399
 31
0.0
 11
8.412313
 21
207.734659
 31
0.0
 11
6.472770
 21
209.588035
 31
0.0
 11
5.578567
 21
209.870610
 31
0.0
 11
5.729703
 21
208.582384
 31
0.0
  0
LWPOLYLINE
  5
115
100
AcDbEntity
  8
Layer_1
 62
7
100
AcDbPolyline
 90
2
 70
0
 10
25.838827
 20
184.825916
 30
0.0
 10
23.817593
 20
178.605189
 30
0.0
  0
SPLINE
  5
116
100
AcDbEntity
  8
Layer_1
 62
1
100
AcDbSpline
 70
0
 71
3
 72
13
 73
9
 74
7
 40
0.000000
 40
0.000000
 40
0.000000
 40
0.000000
 40
1.475644
 40
2.238751
 40
4.170082
 40
6.101529
 40
6.864609
 40
8.340124
 40
8.340124
 40
8.340124
 40
8.340124
 10
23.817410
 20
178.605033
 30
0.0
 10
23.564877
 20
178.024208
 30
0.0
 10
23.181750
 20
177.143020
 30
0.0
 10
24.827988
 20
176.708288
 30
0.0
 10
25.994703
 20
177.897602
 30
0.0
 10
27.161376
 20
179.086740
 30
0.0
 10
28.807694
 20
178.652237
 30
0.0
 10
28.424497
 20
177.771091
 30
0.0
 10
28.171923
 20
177.190306
 30
0.0
 11
23.817410
 21
178.605033
 31
0.0
 11
23.610242
 21
177.144004
 31
0.0
 11
24.335994
 21
176.908172
 31
0.0
 11
25.994667
 21
177.897537
 31
0.0
 11
27.653457
 21
178.886932
 31
0.0
 11
28.379209
 21
178.651188
 31
0.0
 11
28.171923
 21
177.190306
 31
0.0
  0
LWPOLYLINE
  5
117
100
AcDbEntity
  8
Layer_1
 62
7
100
AcDbPolyline
 90
2
 70
0
 10
28.172097
 20
177.190324
 30
0.0
 10
24.634936
 20
166.304048
 30
0.0
  0
LWPOLYLINE
  5
118
100
AcDbEntity
  8
Layer_1
 62
7
100
AcDbPolyline
 90
2
 70
0
 10
21.291042
 20
170.829281
 30
0.0
 10
14.216716
 20
149.056736
 30
0.0
  0
SPLINE
  5
119
100
AcDbEntity
  8
Layer_1
 62
1
100
AcDbSpline
 70
0
 71
3
 72
13
 73
9
 74
7
 40
0.000000
 40
0.000000
 40
0.000000
 40
0.000000
 40
1.297027
 40
2.234751
 40
4.917335
 40
7.600042
 40
8.537838
 40
9.834896
 40
9.834896
 40
9.834896
 40
9.834896
 10
24.634708
 20
166.304025
 30
0.0
 10
24.443551
 20
165.713830
 30
0.0
 10
24.114192
 20
164.696938
 30
0.0
 10
22.988509
 20
166.637040
 30
0.0
 10
22.962769
 20
168.566516
 30
0.0
 10
22.937201
 20
170.496005
 30
0.0
 10
21.811576
 20
172.436275
 30
0.0
 10
21.482115
 20
171.419378
 30
0.0
 10
21.290904
 20
170.829193
 30
0.0
 11
24.634708
 21
166.304025
 31
0.0
 11
23.999855
 21
165.172990
 31
0.0
 11
23.442555
 21
165.927140
 31
0.0
 11
22.962806
 21
168.566477
 31
0.0
 11
22.483175
 21
171.205960
 31
0.0
 11
21.925875
 21
171.960199
 31
0.0
 11
21.290904
 21
170.829193
 31
0.0
  0
LWPOLYLINE
  5
11a
100
AcDbEntity
  8
Layer_1
 62
7
100
AcDbPolyline
 90
2
 70
0
 10
25.838827
 20
184.825916
 30
0.0
 10
23.817593
 20
191.046643
 30
0.0
  0
SPLINE
  5
11b
100
AcDbEntity
  8
Layer_1
 62
1
100
AcDbSpline
 70
0
 71
3
 72
13
 73
9
 74
7
 40
0.000000
 40
0.000000
 40
0.000000
 40
0.000000
 40
1.475602
 40
2.238709
 40
4.170201
 40
6.101539
 40
6.864646
 40
8.340199
 40
8.340199
 40
8.340199
 40
8.340199
 10
23.817410
 20
191.046535
 30
0.0
 10
23.680377
 20
191.664893
 30
0.0
 10
23.472476
 20
192.603034
 30
0.0
 10
21.885090
 20
191.986958
 30
0.0
 10
21.640145
 20
190.339103
 30
0.0
 10
21.395284
 20
188.691204
 30
0.0
 10
19.807978
 20
188.075176
 30
0.0
 10
19.599989
 20
189.013242
 30
0.0
 10
19.462898
 20
189.631543
 30
0.0
 11
23.817410
 21
191.046535
 31
0.0
 11
23.126407
 21
192.350343
 31
0.0
 11
22.400655
 21
192.114511
 31
0.0
 11
21.640154
 21
190.339039
 31
0.0
 11
20.879771
 21
188.563685
 31
0.0
 11
20.154019
 21
188.327853
 31
0.0
 11
19.462898
 21
189.631543
 31
0.0
  0
LWPOLYLINE
  5
11c
100
AcDbEntity
  8
Layer_1
 62
7
100
AcDbPolyline
 90
2
 70
0
 10
19.463080
 20
189.631776
 30
0.0
 10
15.925919
 20
200.518054
 30
0.0
  0
LWPOLYLINE
  5
11d
100
AcDbEntity
  8
Layer_1
 62
7
100
AcDbPolyline
 90
2
 70
0
 10
21.291042
 20
198.822551
 30
0.0
 10
14.216716
 20
220.595098
 30
0.0
  0
SPLINE
  5
11e
100
AcDbEntity
  8
Layer_1
 62
1
100
AcDbSpline
 70
0
 71
3
 72
13
 73
9
 74
7
 40
0.000000
 40
0.000000
 40
0.000000
 40
0.000000
 40
1.297049
 40
2.234838
 40
4.917444
 40
7.600135
 40
8.537924
 40
9.834986
 40
9.834986
 40
9.834986
 40
9.834986
 10
15.925683
 20
200.517824
 30
0.0
 10
15.733503
 20
201.107677
 30
0.0
 10
15.402374
 20
202.124003
 30
0.0
 10
17.453449
 20
201.216039
 30
0.0
 10
18.608292
 20
199.670055
 30
0.0
 10
19.763217
 20
198.124181
 30
0.0
 10
21.814354
 20
197.216195
 30
0.0
 10
21.483136
 20
198.232520
 30
0.0
 10
21.290904
 20
198.822374
 30
0.0
 11
15.925683
 21
200.517824
 31
0.0
 11
15.774665
 21
201.806051
 31
0.0
 11
16.668869
 21
201.523476
 31
0.0
 11
18.608294
 21
199.670099
 31
0.0
 11
20.547837
 21
197.816722
 31
0.0
 11
21.442040
 21
197.534147
 31
0.0
 11
21.290904
 21
198.822374
 31
0.0
  0
LWPOLYLINE
  5
11f
100
AcDbEntity
  8
Layer_1
 62
7
100
AcDbPolyline
 90
2
 70
0
 10
63.448773
 20
184.825916
 30
0.0
 10
54.886674
 20
178.605189
 30
0.0
  0
SPLINE
  5
120
100
AcDbEntity
  8
Layer_1
 62
1
100
AcDbSpline
 70
0
 71
3
 72
13
 73
9
 74
7
 40
0.000000
 40
0.000000
 40
0.000000
 40
0.000000
 40
2.387667
 40
3.622372
 40
6.747510
 40
9.872542
 40
11.107247
 40
13.494748
 40
13.494748
 40
13.494748
 40
13.494748
 10
54.886637
 20
178.605033
 30
0.0
 10
54.003593
 20
178.084938
 30
0.0
 10
52.663911
 20
177.295892
 30
0.0
 10
54.405564
 20
175.161158
 30
0.0
 10
57.063864
 20
175.608411
 30
0.0
 10
59.722122
 20
176.055400
 30
0.0
 10
61.463733
 20
173.920770
 30
0.0
 10
60.124124
 20
173.131754
 30
0.0
 10
59.241149
 20
172.611691
 30
0.0
 11
54.886637
 21
178.605033
 31
0.0
 11
53.225789
 21
176.889651
 31
0.0
 11
53.951541
 21
175.890761
 31
0.0
 11
57.063893
 21
175.608362
 31
0.0
 11
60.176128
 21
175.325846
 31
0.0
 11
60.901880
 21
174.326955
 31
0.0
 11
59.241149
 21
172.611691
 31
0.0
  0
LWPOLYLINE
  5
121
100
AcDbEntity
  8
Layer_1
 62
7
100
AcDbPolyline
 90
2
 70
0
 10
59.241181
 20
172.611723
 30
0.0
 10
44.257510
 20
161.725450
 30
0.0
  0
LWPOLYLINE
  5
122
100
AcDbEntity
  8
Layer_1
 62
7
100
AcDbPolyline
 90
2
 70
0
 10
44.184048
 20
170.829281
 30
0.0
 10
14.216716
 20
149.056736
 30
0.0
  0
SPLINE
  5
123
100
AcDbEntity
  8
Layer_1
 62
1
100
AcDbSpline
 70
0
 71
3
 72
13
 73
9
 74
7
 40
0.000000
 40
0.000000
 40
0.000000
 40
0.000000
 40
2.098581
 40
3.615928
 40
7.956566
 40
12.297142
 40
13.814488
 40
15.913097
 40
15.913097
 40
15.913097
 40
15.913097
 10
44.257266
 20
161.725410
 30
0.0
 10
43.445723
 20
161.134698
 30
0.0
 10
42.047407
 20
160.116880
 30
0.0
 10
42.419298
 20
163.727196
 30
0.0
 10
44.220758
 20
166.277259
 30
0.0
 10
46.022147
 20
168.827449
 30
0.0
 10
46.393830
 20
172.437727
 30
0.0
 10
44.995520
 20
171.419909
 30
0.0
 10
44.183977
 20
170.829193
 30
0.0
 11
44.257266
 21
161.725410
 31
0.0
 11
42.350561
 21
160.848757
 31
0.0
 11
42.338390
 21
162.366054
 31
0.0
 11
44.220754
 21
166.277302
 31
0.0
 11
46.102970
 21
170.188549
 31
0.0
 11
46.090711
 21
171.705846
 31
0.0
 11
44.183977
 21
170.829193
 31
0.0
  0
LWPOLYLINE
  5
124
100
AcDbEntity
  8
Layer_1
 62
7
100
AcDbPolyline
 90
2
 70
0
 10
63.448773
 20
184.825916
 30
0.0
 10
54.886674
 20
191.046643
 30
0.0
  0
SPLINE
  5
125
100
AcDbEntity
  8
Layer_1
 62
1
100
AcDbSpline
 70
0
 71
3
 72
13
 73
9
 74
7
 40
0.000000
 40
0.000000
 40
0.000000
 40
0.000000
 40
2.387681
 40
3.622387
 40
6.747469
 40
9.872555
 40
11.107332
 40
13.494843
 40
13.494843
 40
13.494843
 40
13.494843
 10
54.886637
 20
191.046535
 30
0.0
 10
54.119116
 20
191.725629
 30
0.0
 10
52.954698
 20
192.755893
 30
0.0
 10
51.462601
 20
190.439874
 30
0.0
 10
52.709451
 20
188.049860
 30
0.0
 10
53.955980
 20
185.659839
 30
0.0
 10
52.464042
 20
183.343744
 30
0.0
 10
51.299617
 20
184.373921
 30
0.0
 10
50.532125
 20
185.052929
 30
0.0
 11
54.886637
 21
191.046535
 31
0.0
 11
52.741954
 21
192.095990
 31
0.0
 11
52.016202
 21
191.097099
 31
0.0
 11
52.709381
 21
188.049864
 31
0.0
 11
53.402442
 21
185.002599
 31
0.0
 11
52.676690
 21
184.003620
 31
0.0
 11
50.532125
 21
185.052929
 31
0.0
  0
SPLINE
  5
126
100
AcDbEntity
  8
Layer_1
 62
1
100
AcDbSpline
 70
0
 71
3
 72
10
 73
6
 74
4
 40
0.000000
 40
0.000000
 40
0.000000
 40
0.000000
 40
2.098619
 40
3.616061
 40
7.956720
 40
7.956720
 40
7.956720
 40
7.956720
 10
35.548241
 20
195.939210
 30
0.0
 10
34.735702
 20
196.528530
 30
0.0
 10
33.335643
 20
197.543968
 30
0.0
 10
36.884166
 20
198.306132
 30
0.0
 10
38.597050
 20
197.774699
 30
0.0
 10
39.866241
 20
197.380924
 30
0.0
 11
35.548241
 21
195.939210
 31
0.0
 11
34.125371
 21
197.481819
 31
0.0
 11
35.564704
 21
197.962390
 31
0.0
 11
39.866241
 21
197.380924
 31
0.0
  0
LWPOLYLINE
  5
127
100
AcDbEntity
  8
Layer_1
 62
7
100
AcDbPolyline
 90
2
 70
0
 10
50.532167
 20
185.053175
 30
0.0
 10
35.548498
 20
195.939450
 30
0.0
  0
LWPOLYLINE
  5
128
100
AcDbEntity
  8
Layer_1
 62
7
100
AcDbPolyline
 90
2
 70
0
 10
44.184048
 20
198.822551
 30
0.0
 10
14.216716
 20
220.595098
 30
0.0
  0
SPLINE
  5
129
100
AcDbEntity
  8
Layer_1
 62
5
100
AcDbSpline
 70
0
 71
3
 72
10
 73
6
 74
4
 40
0.000000
 40
0.000000
 40
0.000000
 40
0.000000
 40
4.340533
 40
5.857863
 40
7.956481
 40
7.956481
 40
7.956481
 40
7.956481
 10
39.866241
 20
197.380924
 30
0.0
 10
41.135382
 20
196.987103
 30
0.0
 10
42.848180
 20
196.455614
 30
0.0
 10
46.396601
 20
197.217655
 30
0.0
 10
44.996541
 20
198.233057
 30
0.0
 10
44.183977
 20
198.822374
 30
0.0
 11
39.866241
 21
197.380924
 31
0.0
 11
44.167631
 21
196.799311
 31
0.0
 11
45.606877
 21
197.279795
 31
0.0
 11
44.183977
 21
198.822374
 31
0.0
  0
LWPOLYLINE
  5
12a
100
AcDbEntity
  8
Layer_1
 62
7
100
AcDbPolyline
 90
2
 70
0
 10
115.578821
 20
158.094866
 30
0.0
 10
107.016724
 20
164.315592
 30
0.0
  0
SPLINE
  5
12b
100
AcDbEntity
  8
Layer_1
 62
1
100
AcDbSpline
 70
0
 71
3
 72
13
 73
9
 74
7
 40
0.000000
 40
0.000000
 40
0.000000
 40
0.000000
 40
2.387681
 40
3.622387
 40
6.747469
 40
9.872526
 40
11.107232
 40
13.494807
 40
13.494807
 40
13.494807
 40
13.494807
 10
107.016663
 20
164.315380
 30
0.0
 10
106.249142
 20
164.994474
 30
0.0
 10
105.084724
 20
166.024738
 30
0.0
 10
103.592629
 20
163.708718
 30
0.0
 10
104.839450
 20
161.318725
 30
0.0
 10
106.086045
 20
158.928696
 30
0.0
 10
104.594001
 20
156.612700
 30
0.0
 10
103.429630
 20
157.642958
 30
0.0
 10
102.662151
 20
158.322038
 30
0.0
 11
107.016663
 21
164.315380
 31
0.0
 11
104.871980
 21
165.364835
 31
0.0
 11
104.146228
 21
164.365945
 31
0.0
 11
104.839407
 21
161.318709
 31
0.0
 11
105.532469
 21
158.271473
 31
0.0
 11
104.806716
 21
157.272583
 31
0.0
 11
102.662151
 21
158.322038
 31
0.0
  0
LWPOLYLINE
  5
12c
100
AcDbEntity
  8
Layer_1
 62
7
100
AcDbPolyline
 90
2
 70
0
 10
102.662217
 20
158.322125
 30
0.0
 10
87.678546
 20
169.208396
 30
0.0
  0
LWPOLYLINE
  5
12d
100
AcDbEntity
  8
Layer_1
 62
7
100
AcDbPolyline
 90
2
 70
0
 10
96.314106
 20
172.091502
 30
0.0
 10
66.346766
 20
193.864046
 30
0.0
  0
SPLINE
  5
12e
100
AcDbEntity
  8
Layer_1
 62
1
100
AcDbSpline
 70
0
 71
3
 72
13
 73
9
 74
7
 40
0.000000
 40
0.000000
 40
0.000000
 40
0.000000
 40
2.098611
 40
3.615941
 40
7.956575
 40
12.297089
 40
13.814447
 40
15.913086
 40
15.913086
 40
15.913086
 40
15.913086
 10
87.678532
 20
169.208319
 30
0.0
 10
86.865918
 20
169.797587
 30
0.0
 10
85.465771
 20
170.812905
 30
0.0
 10
89.014272
 20
171.574972
 30
0.0
 10
91.996213
 20
170.649798
 30
0.0
 10
94.978255
 20
169.724537
 30
0.0
 10
98.526623
 20
170.486761
 30
0.0
 10
97.126564
 20
171.502166
 30
0.0
 10
96.314003
 20
172.091484
 30
0.0
 11
87.678532
 21
169.208319
 31
0.0
 11
86.255515
 21
170.750781
 31
0.0
 11
87.694760
 21
171.231265
 31
0.0
 11
91.996268
 21
170.649769
 31
0.0
 11
96.297658
 21
170.068303
 31
0.0
 11
97.736903
 21
170.548875
 31
0.0
 11
96.314003
 21
172.091484
 31
0.0
  0
LWPOLYLINE
  5
12f
100
AcDbEntity
  8
Layer_1
 62
7
100
AcDbPolyline
 90
2
 70
0
 10
115.578821
 20
229.633228
 30
0.0
 10
107.016724
 20
223.412501
 30
0.0
  0
SPLINE
  5
130
100
AcDbEntity
  8
Layer_1
 62
1
100
AcDbSpline
 70
0
 71
3
 72
13
 73
9
 74
7
 40
0.000000
 40
0.000000
 40
0.000000
 40
0.000000
 40
2.387688
 40
3.622465
 40
6.747616
 40
9.872637
 40
11.107342
 40
13.494927
 40
13.494927
 40
13.494927
 40
13.494927
 10
107.016663
 20
223.412448
 30
0.0
 10
106.133634
 20
222.892346
 30
0.0
 10
104.793951
 20
222.103278
 30
0.0
 10
106.535542
 20
219.968454
 30
0.0
 10
109.193880
 20
220.415458
 30
0.0
 10
111.852161
 20
220.862680
 30
0.0
 10
113.593765
 20
218.728013
 30
0.0
 10
112.254159
 20
217.938945
 30
0.0
 10
111.371176
 20
217.418842
 30
0.0
 11
107.016663
 21
223.412448
 31
0.0
 11
105.355815
 21
221.697036
 31
0.0
 11
106.081567
 21
220.698058
 31
0.0
 11
109.193920
 21
220.415512
 31
0.0
 11
112.306155
 21
220.133114
 31
0.0
 11
113.031907
 21
219.134223
 31
0.0
 11
111.371176
 21
217.418842
 31
0.0
  0
SPLINE
  5
131
100
AcDbEntity
  8
Layer_1
 62
1
100
AcDbSpline
 70
0
 71
3
 72
10
 73
6
 74
4
 40
0.000000
 40
0.000000
 40
0.000000
 40
0.000000
 40
2.098666
 40
3.616013
 40
7.956533
 40
7.956533
 40
7.956533
 40
7.956533
 10
96.387557
 20
206.532560
 30
0.0
 10
95.575962
 20
205.941886
 30
0.0
 10
94.177580
 20
204.924150
 30
0.0
 10
94.549258
 20
208.534382
 30
0.0
 10
95.584037
 20
209.999120
 30
0.0
 10
96.350780
 20
211.084452
 30
0.0
 11
96.387557
 21
206.532560
 31
0.0
 11
94.480705
 21
205.656025
 31
0.0
 11
94.468446
 21
207.173322
 31
0.0
 11
96.350780
 21
211.084452
 31
0.0
  0
LWPOLYLINE
  5
132
100
AcDbEntity
  8
Layer_1
 62
7
100
AcDbPolyline
 90
2
 70
0
 10
111.371229
 20
217.419035
 30
0.0
 10
96.387568
 20
206.532762
 30
0.0
  0
LWPOLYLINE
  5
133
100
AcDbEntity
  8
Layer_1
 62
7
100
AcDbPolyline
 90
2
 70
0
 10
96.314106
 20
215.636595
 30
0.0
 10
66.346766
 20
193.864046
 30
0.0
  0
SPLINE
  5
134
100
AcDbEntity
  8
Layer_1
 62
5
100
AcDbSpline
 70
0
 71
3
 72
10
 73
6
 74
4
 40
0.000000
 40
0.000000
 40
0.000000
 40
0.000000
 40
4.340575
 40
5.857922
 40
7.956530
 40
7.956530
 40
7.956530
 40
7.956530
 10
96.350780
 20
211.084452
 30
0.0
 10
97.117470
 20
212.169818
 30
0.0
 10
98.152174
 20
213.634597
 30
0.0
 10
98.523857
 20
217.244878
 30
0.0
 10
97.125547
 20
216.227060
 30
0.0
 10
96.314003
 20
215.636344
 30
0.0
 11
96.350780
 21
211.084452
 31
0.0
 11
98.232997
 21
214.995699
 31
0.0
 11
98.220738
 21
216.512996
 31
0.0
 11
96.314003
 21
215.636344
 31
0.0
  0
LWPOLYLINE
  5
135
100
AcDbEntity
  8
Layer_1
 62
7
100
AcDbPolyline
 90
2
 70
0
 10
115.578821
 20
158.094866
 30
0.0
 10
117.600057
 20
164.315592
 30
0.0
  0
SPLINE
  5
136
100
AcDbEntity
  8
Layer_1
 62
1
100
AcDbSpline
 70
0
 71
3
 72
13
 73
9
 74
7
 40
0.000000
 40
0.000000
 40
0.000000
 40
0.000000
 40
1.475644
 40
2.238751
 40
4.170082
 40
6.101514
 40
6.864622
 40
8.340282
 40
8.340282
 40
8.340282
 40
8.340282
 10
117.599997
 20
164.315380
 30
0.0
 10
117.852530
 20
164.896204
 30
0.0
 10
118.235658
 20
165.777393
 30
0.0
 10
116.589418
 20
166.212123
 30
0.0
 10
115.422724
 20
165.022831
 30
0.0
 10
114.255986
 20
163.833629
 30
0.0
 10
112.609689
 20
164.268358
 30
0.0
 10
112.992897
 20
165.149546
 30
0.0
 10
113.245484
 20
165.730371
 30
0.0
 11
117.599997
 21
164.315380
 31
0.0
 11
117.807165
 21
165.776409
 31
0.0
 11
117.081413
 21
166.012241
 31
0.0
 11
115.422740
 21
165.022876
 31
0.0
 11
113.763950
 21
164.033510
 31
0.0
 11
113.038198
 21
164.269342
 31
0.0
 11
113.245484
 21
165.730371
 31
0.0
  0
LWPOLYLINE
  5
137
100
AcDbEntity
  8
Layer_1
 62
7
100
AcDbPolyline
 90
2
 70
0
 10
113.245550
 20
165.730458
 30
0.0
 10
116.782712
 20
176.616729
 30
0.0
  0
LWPOLYLINE
  5
138
100
AcDbEntity
  8
Layer_1
 62
7
100
AcDbPolyline
 90
2
 70
0
 10
120.126606
 20
172.091502
 30
0.0
 10
127.200932
 20
193.864046
 30
0.0
  0
SPLINE
  5
139
100
AcDbEntity
  8
Layer_1
 62
1
100
AcDbSpline
 70
0
 71
3
 72
13
 73
9
 74
7
 40
0.000000
 40
0.000000
 40
0.000000
 40
0.000000
 40
1.296899
 40
2.234694
 40
4.917307
 40
7.599869
 40
8.537594
 40
9.834678
 40
9.834678
 40
9.834678
 40
9.834678
 10
116.782699
 20
176.616652
 30
0.0
 10
116.973872
 20
177.206763
 30
0.0
 10
117.303283
 20
178.223587
 30
0.0
 10
118.428847
 20
176.283355
 30
0.0
 10
118.454663
 20
174.353987
 30
0.0
 10
118.480185
 20
172.424473
 30
0.0
 10
119.605869
 20
170.484394
 30
0.0
 10
119.935300
 20
171.501282
 30
0.0
 10
120.126503
 20
172.091484
 30
0.0
 11
116.782699
 21
176.616652
 31
0.0
 11
117.417552
 21
177.747540
 31
0.0
 11
117.974852
 21
176.993302
 31
0.0
 11
118.454601
 21
174.353936
 31
0.0
 11
118.934232
 21
171.714600
 31
0.0
 11
119.491532
 21
170.960449
 31
0.0
 11
120.126503
 21
172.091484
 31
0.0
  0
LWPOLYLINE
  5
13a
100
AcDbEntity
  8
Layer_1
 62
7
100
AcDbPolyline
 90
2
 70
0
 10
115.578821
 20
229.633228
 30
0.0
 10
117.600057
 20
223.412501
 30
0.0
  0
SPLINE
  5
13b
100
AcDbEntity
  8
Layer_1
 62
1
100
AcDbSpline
 70
0
 71
3
 72
13
 73
9
 74
7
 40
0.000000
 40
0.000000
 40
0.000000
 40
0.000000
 40
1.475628
 40
2.238708
 40
4.170065
 40
6.101510
 40
6.864618
 40
8.340275
 40
8.340275
 40
8.340275
 40
8.340275
 10
117.599997
 20
223.412448
 30
0.0
 10
117.737020
 20
222.794093
 30
0.0
 10
117.944901
 20
221.855973
 30
0.0
 10
119.532289
 20
222.471819
 30
0.0
 10
119.777311
 20
224.119709
 30
0.0
 10
120.022079
 20
225.767617
 30
0.0
 10
121.609470
 20
226.383669
 30
0.0
 10
121.817433
 20
225.445535
 30
0.0
 10
121.954509
 20
224.827175
 30
0.0
 11
117.599997
 21
223.412448
 31
0.0
 11
118.291000
 21
222.108610
 31
0.0
 11
119.016752
 21
222.344354
 31
0.0
 11
119.777253
 21
224.119679
 31
0.0
 11
120.537636
 21
225.895151
 31
0.0
 11
121.263388
 21
226.130983
 31
0.0
 11
121.954509
 21
224.827175
 31
0.0
  0
LWPOLYLINE
  5
13c
100
AcDbEntity
  8
Layer_1
 62
7
100
AcDbPolyline
 90
2
 70
0
 10
121.954562
 20
224.827368
 30
0.0
 10
125.491734
 20
213.941089
 30
0.0
  0
LWPOLYLINE
  5
13d
100
AcDbEntity
  8
Layer_1
 62
7
100
AcDbPolyline
 90
2
 70
0
 10
120.126606
 20
215.636595
 30
0.0
 10
127.200932
 20
193.864046
 30
0.0
  0
SPLINE
  5
13e
100
AcDbEntity
  8
Layer_1
 62
1
100
AcDbSpline
 70
0
 71
3
 72
13
 73
9
 74
7
 40
0.000000
 40
0.000000
 40
0.000000
 40
0.000000
 40
1.296932
 40
2.234721
 40
4.917246
 40
7.599937
 40
8.537726
 40
9.834788
 40
9.834788
 40
9.834788
 40
9.834788
 10
125.491724
 20
213.940894
 30
0.0
 10
125.683887
 20
213.351100
 30
0.0
 10
126.015000
 20
212.334837
 30
0.0
 10
123.963985
 20
213.242799
 30
0.0
 10
122.809079
 20
214.788652
 30
0.0
 10
121.654192
 20
216.334539
 30
0.0
 10
119.603053
 20
217.242522
 30
0.0
 10
119.934271
 20
216.226198
 30
0.0
 10
120.126503
 20
215.636344
 30
0.0
 11
125.491724
 21
213.940894
 31
0.0
 11
125.642742
 21
212.652784
 31
0.0
 11
124.748538
 21
212.935359
 31
0.0
 11
122.809113
 21
214.788619
 31
0.0
 11
120.869570
 21
216.641995
 31
0.0
 11
119.975367
 21
216.924570
 31
0.0
 11
120.126503
 21
215.636344
 31
0.0
  0
LWPOLYLINE
  5
13f
100
AcDbEntity
  8
Layer_1
 62
7
100
AcDbPolyline
 90
2
 70
0
 10
140.235627
 20
191.879876
 30
0.0
 10
138.214393
 20
185.659149
 30
0.0
  0
SPLINE
  5
140
100
AcDbEntity
  8
Layer_1
 62
1
100
AcDbSpline
 70
0
 71
3
 72
13
 73
9
 74
7
 40
0.000000
 40
0.000000
 40
0.000000
 40
0.000000
 40
1.475644
 40
2.238751
 40
4.170082
 40
6.101529
 40
6.864609
 40
8.340124
 40
8.340124
 40
8.340124
 40
8.340124
 10
138.214210
 20
185.658993
 30
0.0
 10
137.961677
 20
185.078168
 30
0.0
 10
137.578550
 20
184.196980
 30
0.0
 10
139.224788
 20
183.762248
 30
0.0
 10
140.391503
 20
184.951562
 30
0.0
 10
141.558176
 20
186.140700
 30
0.0
 10
143.204494
 20
185.706197
 30
0.0
 10
142.821297
 20
184.825051
 30
0.0
 10
142.568723
 20
184.244266
 30
0.0
 11
138.214210
 21
185.658993
 31
0.0
 11
138.007042
 21
184.197964
 31
0.0
 11
138.732794
 21
183.962132
 31
0.0
 11
140.391467
 21
184.951497
 31
0.0
 11
142.050257
 21
185.940892
 31
0.0
 11
142.776009
 21
185.705148
 31
0.0
 11
142.568723
 21
184.244266
 31
0.0
  0
LWPOLYLINE
  5
141
100
AcDbEntity
  8
Layer_1
 62
7
100
AcDbPolyline
 90
2
 70
0
 10
142.568897
 20
184.244284
 30
0.0
 10
139.031736
 20
173.358008
 30
0.0
  0
LWPOLYLINE
  5
142
100
AcDbEntity
  8
Layer_1
 62
7
100
AcDbPolyline
 90
2
 70
0
 10
135.687842
 20
177.883241
 30
0.0
 10
128.613516
 20
156.110696
 30
0.0
  0
SPLINE
  5
143
100
AcDbEntity
  8
Layer_1
 62
1
100
AcDbSpline
 70
0
 71
3
 72
13
 73
9
 74
7
 40
0.000000
 40
0.000000
 40
0.000000
 40
0.000000
 40
1.297027
 40
2.234751
 40
4.917335
 40
7.600042
 40
8.537838
 40
9.834896
 40
9.834896
 40
9.834896
 40
9.834896
 10
139.031508
 20
173.357985
 30
0.0
 10
138.840351
 20
172.767790
 30
0.0
 10
138.510992
 20
171.750898
 30
0.0
 10
137.385309
 20
173.691000
 30
0.0
 10
137.359569
 20
175.620476
 30
0.0
 10
137.334001
 20
177.549965
 30
0.0
 10
136.208376
 20
179.490235
 30
0.0
 10
135.878915
 20
178.473338
 30
0.0
 10
135.687704
 20
177.883153
 30
0.0
 11
139.031508
 21
173.357985
 31
0.0
 11
138.396655
 21
172.226950
 31
0.0
 11
137.839355
 21
172.981100
 31
0.0
 11
137.359606
 21
175.620437
 31
0.0
 11
136.879975
 21
178.259920
 31
0.0
 11
136.322675
 21
179.014159
 31
0.0
 11
135.687704
 21
177.883153
 31
0.0
  0
LWPOLYLINE
  5
144
100
AcDbEntity
  8
Layer_1
 62
7
100
AcDbPolyline
 90
2
 70
0
 10
140.235627
 20
191.879876
 30
0.0
 10
138.214393
 20
198.100603
 30
0.0
  0
SPLINE
  5
145
100
AcDbEntity
  8
Layer_1
 62
1
100
AcDbSpline
 70
0
 71
3
 72
13
 73
9
 74
7
 40
0.000000
 40
0.000000
 40
0.000000
 40
0.000000
 40
1.475602
 40
2.238709
 40
4.170201
 40
6.101539
 40
6.864646
 40
8.340199
 40
8.340199
 40
8.340199
 40
8.340199
 10
138.214210
 20
198.100495
 30
0.0
 10
138.077177
 20
198.718853
 30
0.0
 10
137.869276
 20
199.656994
 30
0.0
 10
136.281890
 20
199.040918
 30
0.0
 10
136.036945
 20
197.393063
 30
0.0
 10
135.792084
 20
195.745164
 30
0.0
 10
134.204778
 20
195.129136
 30
0.0
 10
133.996789
 20
196.067202
 30
0.0
 10
133.859698
 20
196.685503
 30
0.0
 11
138.214210
 21
198.100495
 31
0.0
 11
137.523207
 21
199.404303
 31
0.0
 11
136.797455
 21
199.168471
 31
0.0
 11
136.036954
 21
197.392999
 31
0.0
 11
135.276571
 21
195.617645
 31
0.0
 11
134.550819
 21
195.381813
 31
0.0
 11
133.859698
 21
196.685503
 31
0.0
  0
LWPOLYLINE
  5
146
100
AcDbEntity
  8
Layer_1
 62
7
100
AcDbPolyline
 90
2
 70
0
 10
133.859880
 20
196.685736
 30
0.0
 10
130.322719
 20
207.572014
 30
0.0
  0
LWPOLYLINE
  5
147
100
AcDbEntity
  8
Layer_1
 62
7
100
AcDbPolyline
 90
2
 70
0
 10
135.687842
 20
205.876511
 30
0.0
 10
128.613516
 20
227.649058
 30
0.0
  0
SPLINE
  5
148
100
AcDbEntity
  8
Layer_1
 62
1
100
AcDbSpline
 70
0
 71
3
 72
13
 73
9
 74
7
 40
0.000000
 40
0.000000
 40
0.000000
 40
0.000000
 40
1.297049
 40
2.234838
 40
4.917444
 40
7.600135
 40
8.537924
 40
9.834986
 40
9.834986
 40
9.834986
 40
9.834986
 10
130.322483
 20
207.571784
 30
0.0
 10
130.130303
 20
208.161637
 30
0.0
 10
129.799174
 20
209.177963
 30
0.0
 10
131.850249
 20
208.269999
 30
0.0
 10
133.005092
 20
206.724015
 30
0.0
 10
134.160017
 20
205.178141
 30
0.0
 10
136.211154
 20
204.270155
 30
0.0
 10
135.879936
 20
205.286480
 30
0.0
 10
135.687704
 20
205.876334
 30
0.0
 11
130.322483
 21
207.571784
 31
0.0
 11
130.171465
 21
208.860011
 31
0.0
 11
131.065669
 21
208.577436
 31
0.0
 11
133.005094
 21
206.724059
 31
0.0
 11
134.944637
 21
204.870682
 31
0.0
 11
135.838840
 21
204.588107
 31
0.0
 11
135.687704
 21
205.876334
 31
0.0
  0
LWPOLYLINE
  5
149
100
AcDbEntity
  8
Layer_1
 62
7
100
AcDbPolyline
 90
2
 70
0
 10
177.845573
 20
191.879876
 30
0.0
 10
169.283474
 20
185.659149
 30
0.0
  0
SPLINE
  5
14a
100
AcDbEntity
  8
Layer_1
 62
1
100
AcDbSpline
 70
0
 71
3
 72
13
 73
9
 74
7
 40
0.000000
 40
0.000000
 40
0.000000
 40
0.000000
 40
2.387667
 40
3.622372
 40
6.747510
 40
9.872542
 40
11.107247
 40
13.494748
 40
13.494748
 40
13.494748
 40
13.494748
 10
169.283437
 20
185.658993
 30
0.0
 10
168.400393
 20
185.138898
 30
0.0
 10
167.060711
 20
184.349852
 30
0.0
 10
168.802364
 20
182.215118
 30
0.0
 10
171.460664
 20
182.662371
 30
0.0
 10
174.118922
 20
183.109360
 30
0.0
 10
175.860533
 20
180.974730
 30
0.0
 10
174.520924
 20
180.185714
 30
0.0
 10
173.637949
 20
179.665651
 30
0.0
 11
169.283437
 21
185.658993
 31
0.0
 11
167.622589
 21
183.943611
 31
0.0
 11
168.348341
 21
182.944721
 31
0.0
 11
171.460693
 21
182.662322
 31
0.0
 11
174.572928
 21
182.379806
 31
0.0
 11
175.298680
 21
181.380915
 31
0.0
 11
173.637949
 21
179.665651
 31
0.0
  0
LWPOLYLINE
  5
14b
100
AcDbEntity
  8
Layer_1
 62
7
100
AcDbPolyline
 90
2
 70
0
 10
173.637981
 20
179.665683
 30
0.0
 10
158.654310
 20
168.779410
 30
0.0
  0
LWPOLYLINE
  5
14c
100
AcDbEntity
  8
Layer_1
 62
7
100
AcDbPolyline
 90
2
 70
0
 10
158.580848
 20
177.883241
 30
0.0
 10
128.613516
 20
156.110696
 30
0.0
  0
SPLINE
  5
14d
100
AcDbEntity
  8
Layer_1
 62
1
100
AcDbSpline
 70
0
 71
3
 72
13
 73
9
 74
7
 40
0.000000
 40
0.000000
 40
0.000000
 40
0.000000
 40
2.098581
 40
3.615928
 40
7.956566
 40
12.297142
 40
13.814488
 40
15.913097
 40
15.913097
 40
15.913097
 40
15.913097
 10
158.654066
 20
168.779370
 30
0.0
 10
157.842523
 20
168.188658
 30
0.0
 10
156.444207
 20
167.170840
 30
0.0
 10
156.816098
 20
170.781156
 30
0.0
 10
158.617558
 20
173.331219
 30
0.0
 10
160.418947
 20
175.881409
 30
0.0
 10
160.790630
 20
179.491687
 30
0.0
 10
159.392320
 20
178.473869
 30
0.0
 10
158.580777
 20
177.883153
 30
0.0
 11
158.654066
 21
168.779370
 31
0.0
 11
156.747361
 21
167.902717
 31
0.0
 11
156.735190
 21
169.420014
 31
0.0
 11
158.617554
 21
173.331262
 31
0.0
 11
160.499770
 21
177.242509
 31
0.0
 11
160.487511
 21
178.759806
 31
0.0
 11
158.580777
 21
177.883153
 31
0.0
  0
LWPOLYLINE
  5
14e
100
AcDbEntity
  8
Layer_1
 62
7
100
AcDbPolyline
 90
2
 70
0
 10
177.845573
 20
191.879876
 30
0.0
 10
169.283474
 20
198.100603
 30
0.0
  0
SPLINE
  5
14f
100
AcDbEntity
  8
Layer_1
 62
1
100
AcDbSpline
 70
0
 71
3
 72
13
 73
9
 74
7
 40
0.000000
 40
0.000000
 40
0.000000
 40
0.000000
 40
2.387681
 40
3.622387
 40
6.747469
 40
9.872555
 40
11.107332
 40
13.494843
 40
13.494843
 40
13.494843
 40
13.494843
 10
169.283437
 20
198.100495
 30
0.0
 10
168.515916
 20
198.779589
 30
0.0
 10
167.351498
 20
199.809853
 30
0.0
 10
165.859401
 20
197.493834
 30
0.0
 10
167.106251
 20
195.103820
 30
0.0
 10
168.352780
 20
192.713799
 30
0.0
 10
166.860842
 20
190.397704
 30
0.0
 10
165.696417
 20
191.427881
 30
0.0
 10
164.928925
 20
192.106889
 30
0.0
 11
169.283437
 21
198.100495
 31
0.0
 11
167.138754
 21
199.149950
 31
0.0
 11
166.413002
 21
198.151059
 31
0.0
 11
167.106181
 21
195.103824
 31
0.0
 11
167.799242
 21
192.056559
 31
0.0
 11
167.073490
 21
191.057580
 31
0.0
 11
164.928925
 21
192.106889
 31
0.0
  0
SPLINE
  5
150
100
AcDbEntity
  8
Layer_1
 62
1
100
AcDbSpline
 70
0
 71
3
 72
10
 73
6
 74
4
 40
0.000000
 40
0.000000
 40
0.000000
 40
0.000000
 40
2.098619
 40
3.616061
 40
7.956720
 40
7.956720
 40
7.956720
 40
7.956720
 10
149.945041
 20
202.993170
 30
0.0
 10
149.132502
 20
203.582490
 30
0.0
 10
147.732443
 20
204.597928
 30
0.0
 10
151.280966
 20
205.360092
 30
0.0
 10
152.993850
 20
204.828659
 30
0.0
 10
154.263041
 20
204.434884
 30
0.0
 11
149.945041
 21
202.993170
 31
0.0
 11
148.522171
 21
204.535779
 31
0.0
 11
149.961504
 21
205.016350
 31
0.0
 11
154.263041
 21
204.434884
 31
0.0
  0
LWPOLYLINE
  5
151
100
AcDbEntity
  8
Layer_1
 62
7
100
AcDbPolyline
 90
2
 70
0
 10
164.928967
 20
192.107135
 30
0.0
 10
149.945298
 20
202.993410
 30
0.0
  0
SPLINE
  5
152
100
AcDbEntity
  8
Layer_1
 62
5
100
AcDbSpline
 70
0
 71
3
 72
10
 73
6
 74
4
 40
0.000000
 40
0.000000
 40
0.000000
 40
0.000000
 40
4.340533
 40
5.857863
 40
7.956481
 40
7.956481
 40
7.956481
 40
7.956481
 10
154.263041
 20
204.434884
 30
0.0
 10
155.532182
 20
204.041063
 30
0.0
 10
157.244980
 20
203.509574
 30
0.0
 10
160.793401
 20
204.271615
 30
0.0
 10
159.393341
 20
205.287017
 30
0.0
 10
158.580777
 20
205.876334
 30
0.0
 11
154.263041
 21
204.434884
 31
0.0
 11
158.564431
 21
203.853271
 31
0.0
 11
160.003677
 21
204.333755
 31
0.0
 11
158.580777
 21
205.876334
 31
0.0
  0
LWPOLYLINE
  5
153
100
AcDbEntity
  8
Layer_1
 62
7
100
AcDbPolyline
 90
2
 70
0
 10
158.580848
 20
205.876511
 30
0.0
 10
128.613516
 20
227.649058
 30
0.0
  0
ENDSEC
  0
SECTION
  2
OBJECTS
  0
DICTIONARY
  5
C
330
0
100
AcDbDictionary
  3
ACAD_GROUP
350
D
  3
ACAD_MLINESTYLE
350
17
  0
DICTIONARY
  5
D
330
C
100
AcDbDictionary
  0
DICTIONARY
  5
1A
330
C
100
AcDbDictionary
  0
DICTIONARY
  5
17
330
C
100
AcDbDictionary
  3
STANDARD
350
18
  0
DICTIONARY
  5
19
330
C
100
AcDbDictionary
  0
ENDSEC
  0
EOF
