  0
SECTION
  2
HEADER
  9
$ACADVER
  1
AC1014
  9
$HANDSEED
  5
FFFF
  9
$MEASUREMENT
 70
     1
  0
ENDSEC
  0
SECTION
  2
TABLES
  0
TABLE
  2
VPORT
  5
8
330
0
100
AcDbSymbolTable
 70
     4
  0
VPORT
  5
2E
330
8
100
AcDbSymbolTableRecord
100
AcDbViewportTableRecord
  2
*ACTIVE
 70
     0
 10
0.0
 20
0.0
 11
1.0
 21
1.0
 12
210.0
 22
148.5
 13
0.0
 23
0.0
 14
10.0
 24
10.0
 15
10.0
 25
10.0
 16
0.0
 26
0.0
 36
1.0
 17
0.0
 27
0.0
 37
0.0
 40
341.0
 41
1.24
 42
50.0
 43
0.0
 44
0.0
 50
0.0
 51
0.0
 71
     0
 72
   100
 73
     1
 74
     3
 75
     0
 76
     0
 77
     0
 78
     0
  0
ENDTAB
  0
TABLE
  2
LTYPE
  5
5
330
0
100
AcDbSymbolTable
 70
     1
  0
LTYPE
  5
14
330
5
100
AcDbSymbolTableRecord
100
AcDbLinetypeTableRecord
  2
BYBLOCK
 70
     0
  3

 72
    65
 73
     0
 40
0.0
  0
LTYPE
  5
15
330
5
100
AcDbSymbolTableRecord
100
AcDbLinetypeTableRecord
  2
BYLAYER
 70
     0
  3

 72
    65
 73
     0
 40
0.0
  0
LTYPE
  5
16
330
5
100
AcDbSymbolTableRecord
100
AcDbLinetypeTableRecord
  2
CONTINUOUS
 70
     0
  3
Solid line
 72
    65
 73
     0
 40
0.0
  0
ENDTAB
  0
TABLE
  2
LAYER
  5
2
100
AcDbSymbolTable
 70
2
  0
LAYER
  5
50
100
AcDbSymbolTableRecord
100
AcDbLayerTableRecord
  2
0
 70
0
  6
CONTINUOUS
  0
LAYER
  5
51
100
AcDbSymbolTableRecord
100
AcDbLayerTableRecord
  2
Layer_1
 70
0
  6
CONTINUOUS
  0
ENDTAB
  0
TABLE
  2
STYLE
  5
3
330
0
100
AcDbSymbolTable
 70
     1
  0
STYLE
  5
11
330
3
100
AcDbSymbolTableRecord
100
AcDbTextStyleTableRecord
  2
STANDARD
 70
     0
 40
0.0
 41
1.0
 50
0.0
 71
     0
 42
2.5
  3
txt
  4

  0
ENDTAB
  0
TABLE
  2
VIEW
  5
6
330
0
100
AcDbSymbolTable
 70
     0
  0
ENDTAB
  0
TABLE
  2
UCS
  5
7
330
0
100
AcDbSymbolTable
 70
     0
  0
ENDTAB
  0
TABLE
  2
APPID
  5
9
330
0
100
AcDbSymbolTable
 70
     2
  0
APPID
  5
12
330
9
100
AcDbSymbolTableRecord
100
AcDbRegAppTableRecord
  2
ACAD
 70
     0
  0
ENDTAB
  0
TABLE
  2
DIMSTYLE
  5
A
330
0
100
AcDbSymbolTable
 70
     1
  0
DIMSTYLE
105
27
330
A
100
AcDbSymbolTableRecord
100
AcDbDimStyleTableRecord
  2
ISO-25
 70
     0
  3

  4

  5

  6

  7

 40
1.0
 41
2.5
 42
0.625
 43
3.75
 44
1.25
 45
0.0
 46
0.0
 47
0.0
 48
0.0
140
2.5
141
2.5
142
0.0
143
0.03937007874016
144
1.0
145
0.0
146
1.0
147
0.625
 71
     0
 72
     0
 73
     0
 74
     0
 75
     0
 76
     0
 77
     1
 78
     8
170
     0
171
     3
172
     1
173
     0
174
     0
175
     0
176
     0
177
     0
178
     0
270
     2
271
     2
272
     2
273
     2
274
     3
340
11
275
     0
280
     0
281
     0
282
     0
283
     0
284
     8
285
     0
286
     0
287
     3
288
     0
  0
ENDTAB
  0
TABLE
  2
BLOCK_RECORD
  5
1
330
0
100
AcDbSymbolTable
 70
     1
  0
BLOCK_RECORD
  5
1F
330
1
100
AcDbSymbolTableRecord
100
AcDbBlockTableRecord
  2
*MODEL_SPACE
  0
BLOCK_RECORD
  5
1B
330
1
100
AcDbSymbolTableRecord
100
AcDbBlockTableRecord
  2
*PAPER_SPACE
  0
ENDTAB
  0
ENDSEC
  0
SECTION
  2
BLOCKS
  0
BLOCK
  5
20
330
1F
100
AcDbEntity
  8
0
100
AcDbBlockBegin
  2
*MODEL_SPACE
 70
     0
 10
0.0
 20
0.0
 30
0.0
  3
*MODEL_SPACE
  1

  0
ENDBLK
  5
21
330
1F
100
AcDbEntity
  8
0
100
AcDbBlockEnd
  0
BLOCK
  5
1C
330
1B
100
AcDbEntity
 67
     1
  8
0
100
AcDbBlockBegin
  2
*PAPER_SPACE
  1

  0
ENDBLK
  5
1D
330
1B
100
AcDbEntity
 67
     1
  8
0
100
AcDbBlockEnd
  0
ENDSEC
  0
SECTION
  2
ENTITIES
  0
LWPOLYLINE
  5
100
100
AcDbEntity
  8
Layer_1
 62
7
100
AcDbPolyline
 90
2
 70
0
 10
-57.391614
 20
233.087315
 30
0.0
 10
-35.986373
 20
248.639132
 30
0.0
  0
SPLINE
  5
101
100
AcDbEntity
  8
Layer_1
 62
1
100
AcDbSpline
 70
0
 71
3
 72
13
 73
9
 74
7
 40
0.000000
 40
0.000000
 40
0.000000
 40
0.000000
 40
2.387681
 40
3.622387
 40
6.747469
 40
9.872526
 40
11.107232
 40
13.494807
 40
13.494807
 40
13.494807
 40
13.494807
 10
-35.986558
 20
248.639259
 30
0.0
 10
-35.219037
 20
249.318353
 30
0.0
 10
-34.054618
 20
250.348617
 30
0.0
 10
-32.562524
 20
248.032597
 30
0.0
 10
-33.809345
 20
245.642604
 30
0.0
 10
-35.055940
 20
243.252575
 30
0.0
 10
-33.563896
 20
240.936579
 30
0.0
 10
-32.399525
 20
241.966837
 30
0.0
 10
-31.632046
 20
242.645917
 30
0.0
 11
-35.986558
 21
248.639259
 31
0.0
 11
-33.841875
 21
249.688714
 31
0.0
 11
-33.116123
 21
248.689823
 31
0.0
 11
-33.809302
 21
245.642588
 31
0.0
 11
-34.502363
 21
242.595352
 31
0.0
 11
-33.776611
 21
241.596462
 31
0.0
 11
-31.632046
 21
242.645917
 31
0.0
  0
LWPOLYLINE
  5
102
100
AcDbEntity
  8
Layer_1
 62
7
100
AcDbPolyline
 90
2
 70
0
 10
-31.631866
 20
242.645666
 30
0.0
 10
-16.648194
 20
253.531939
 30
0.0
  0
LWPOLYLINE
  5
103
100
AcDbEntity
  8
Layer_1
 62
7
100
AcDbPolyline
 90
2
 70
0
 10
-21.002701
 20
259.525405
 30
0.0
 10
4.683585
 20
278.187587
 30
0.0
  0
SPLINE
  5
104
100
AcDbEntity
  8
Layer_1
 62
1
100
AcDbSpline
 70
0
 71
3
 72
13
 73
9
 74
7
 40
0.000000
 40
0.000000
 40
0.000000
 40
0.000000
 40
2.387582
 40
3.622288
 40
6.747436
 40
9.872457
 40
11.107163
 40
13.494748
 40
13.494748
 40
13.494748
 40
13.494748
 10
-16.648427
 20
253.532198
 30
0.0
 10
-15.765391
 20
254.052253
 30
0.0
 10
-14.425706
 20
254.841246
 30
0.0
 10
-16.167367
 20
256.975943
 30
0.0
 10
-18.825631
 20
256.528915
 30
0.0
 10
-21.483926
 20
256.081702
 30
0.0
 10
-23.225528
 20
258.216368
 30
0.0
 10
-21.885922
 20
259.005436
 30
0.0
 10
-21.002939
 20
259.525540
 30
0.0
 11
-16.648427
 21
253.532198
 31
0.0
 11
-14.987579
 21
255.247462
 31
0.0
 11
-15.713331
 21
256.246353
 31
0.0
 11
-18.825683
 21
256.528869
 31
0.0
 11
-21.937918
 21
256.811268
 31
0.0
 11
-22.663670
 21
257.810158
 31
0.0
 11
-21.002939
 21
259.525540
 31
0.0
  0
LWPOLYLINE
  5
105
100
AcDbEntity
  8
Layer_1
 62
7
100
AcDbPolyline
 90
2
 70
0
 10
-57.391614
 20
233.087315
 30
0.0
 10
-35.986373
 20
217.535496
 30
0.0
  0
SPLINE
  5
106
100
AcDbEntity
  8
Layer_1
 62
1
100
AcDbSpline
 70
0
 71
3
 72
13
 73
9
 74
7
 40
0.000000
 40
0.000000
 40
0.000000
 40
0.000000
 40
2.387667
 40
3.622373
 40
6.747510
 40
9.872545
 40
11.107321
 40
13.494928
 40
13.494928
 40
13.494928
 40
13.494928
 10
-35.986558
 20
217.535636
 30
0.0
 10
-35.103514
 20
217.015541
 30
0.0
 10
-33.763831
 20
216.226495
 30
0.0
 10
-35.505486
 20
214.091760
 30
0.0
 10
-38.163773
 20
214.539022
 30
0.0
 10
-40.822105
 20
214.985987
 30
0.0
 10
-42.563645
 20
212.851230
 30
0.0
 10
-41.224039
 20
212.062140
 30
0.0
 10
-40.341070
 20
211.542030
 30
0.0
 11
-35.986558
 21
217.535636
 31
0.0
 11
-34.325710
 21
215.820254
 31
0.0
 11
-35.051462
 21
214.821364
 31
0.0
 11
-38.163814
 21
214.538965
 31
0.0
 11
-41.276049
 21
214.256419
 31
0.0
 11
-42.001801
 21
213.257441
 31
0.0
 11
-40.341070
 21
211.542030
 31
0.0
  0
LWPOLYLINE
  5
107
100
AcDbEntity
  8
Layer_1
 62
7
100
AcDbPolyline
 90
2
 70
0
 10
-40.340877
 20
211.542030
 30
0.0
 10
-25.357216
 20
200.655759
 30
0.0
  0
LWPOLYLINE
  5
108
100
AcDbEntity
  8
Layer_1
 62
7
100
AcDbPolyline
 90
2
 70
0
 10
-21.002701
 20
206.649225
 30
0.0
 10
4.683585
 20
187.987040
 30
0.0
  0
SPLINE
  5
109
100
AcDbEntity
  8
Layer_1
 62
1
100
AcDbSpline
 70
0
 71
3
 72
13
 73
9
 74
7
 40
0.000000
 40
0.000000
 40
0.000000
 40
0.000000
 40
2.387681
 40
3.622387
 40
6.747469
 40
9.872526
 40
11.107232
 40
13.494808
 40
13.494808
 40
13.494808
 40
13.494808
 10
-25.357452
 20
200.656013
 30
0.0
 10
-24.589931
 20
199.976919
 30
0.0
 10
-23.425512
 20
198.946655
 30
0.0
 10
-21.933418
 20
201.262675
 30
0.0
 10
-23.180239
 20
203.652668
 30
0.0
 10
-24.426834
 20
206.042697
 30
0.0
 10
-22.934790
 20
208.358693
 30
0.0
 10
-21.770418
 20
207.328435
 30
0.0
 10
-21.002939
 20
206.649355
 30
0.0
 11
-25.357452
 21
200.656013
 31
0.0
 11
-23.212769
 21
199.606558
 31
0.0
 11
-22.487017
 21
200.605449
 31
0.0
 11
-23.180196
 21
203.652684
 31
0.0
 11
-23.873257
 21
206.699920
 31
0.0
 11
-23.147505
 21
207.698810
 31
0.0
 11
-21.002939
 21
206.649355
 31
0.0
  0
LWPOLYLINE
  5
10a
100
AcDbEntity
  8
Layer_1
 62
7
100
AcDbPolyline
 90
2
 70
0
 10
19.337552
 20
233.087315
 30
0.0
 10
14.284460
 20
248.639132
 30
0.0
  0
SPLINE
  5
10b
100
AcDbEntity
  8
Layer_1
 62
1
100
AcDbSpline
 70
0
 71
3
 72
13
 73
9
 74
7
 40
0.000000
 40
0.000000
 40
0.000000
 40
0.000000
 40
1.475644
 40
2.238751
 40
4.170082
 40
6.101513
 40
6.864621
 40
8.340281
 40
8.340281
 40
8.340281
 40
8.340281
 10
14.284275
 20
248.639259
 30
0.0
 10
14.031741
 20
249.220083
 30
0.0
 10
13.648614
 20
250.101273
 30
0.0
 10
15.294854
 20
250.536002
 30
0.0
 10
16.461547
 20
249.346709
 30
0.0
 10
17.628286
 20
248.157508
 30
0.0
 10
19.274582
 20
248.592237
 30
0.0
 10
18.891374
 20
249.473424
 30
0.0
 10
18.638787
 20
250.054250
 30
0.0
 11
14.284275
 21
248.639259
 31
0.0
 11
14.077106
 21
250.100288
 31
0.0
 11
14.802858
 21
250.336119
 31
0.0
 11
16.461531
 21
249.346754
 31
0.0
 11
18.120321
 21
248.357389
 31
0.0
 11
18.846073
 21
248.593221
 31
0.0
 11
18.638787
 21
250.054250
 31
0.0
  0
LWPOLYLINE
  5
10c
100
AcDbEntity
  8
Layer_1
 62
7
100
AcDbPolyline
 90
2
 70
0
 10
18.638967
 20
250.053999
 30
0.0
 10
15.101805
 20
260.940272
 30
0.0
  0
LWPOLYLINE
  5
10d
100
AcDbEntity
  8
Layer_1
 62
7
100
AcDbPolyline
 90
2
 70
0
 10
10.747298
 20
259.525405
 30
0.0
 10
4.683585
 20
278.187587
 30
0.0
  0
SPLINE
  5
10e
100
AcDbEntity
  8
Layer_1
 62
1
100
AcDbSpline
 70
0
 71
3
 72
13
 73
9
 74
7
 40
0.000000
 40
0.000000
 40
0.000000
 40
0.000000
 40
1.475498
 40
2.238606
 40
4.169990
 40
6.101435
 40
6.864542
 40
8.340199
 40
8.340199
 40
8.340199
 40
8.340199
 10
15.101573
 20
260.940531
 30
0.0
 10
14.964525
 20
261.558830
 30
0.0
 10
14.756597
 20
262.496904
 30
0.0
 10
13.169297
 20
261.880849
 30
0.0
 10
12.924255
 20
260.233043
 30
0.0
 10
12.679491
 20
258.585094
 30
0.0
 10
11.092099
 20
257.969046
 30
0.0
 10
10.884136
 20
258.907180
 30
0.0
 10
10.747060
 20
259.525540
 30
0.0
 11
15.101573
 21
260.940531
 31
0.0
 11
14.410569
 21
262.244221
 31
0.0
 11
13.684817
 21
262.008389
 31
0.0
 11
12.924316
 21
260.233035
 31
0.0
 11
12.163933
 21
258.457564
 31
0.0
 11
11.438181
 21
258.221732
 31
0.0
 11
10.747060
 21
259.525540
 31
0.0
  0
LWPOLYLINE
  5
10f
100
AcDbEntity
  8
Layer_1
 62
7
100
AcDbPolyline
 90
2
 70
0
 10
19.337552
 20
233.087315
 30
0.0
 10
14.284460
 20
217.535496
 30
0.0
  0
SPLINE
  5
110
100
AcDbEntity
  8
Layer_1
 62
1
100
AcDbSpline
 70
0
 71
3
 72
13
 73
9
 74
7
 40
0.000000
 40
0.000000
 40
0.000000
 40
0.000000
 40
1.475602
 40
2.238710
 40
4.170202
 40
6.101512
 40
6.864592
 40
8.340275
 40
8.340275
 40
8.340275
 40
8.340275
 10
14.284275
 20
217.535636
 30
0.0
 10
14.147241
 20
216.917278
 30
0.0
 10
13.939340
 20
215.979136
 30
0.0
 10
12.351955
 20
216.595215
 30
0.0
 10
12.107005
 20
218.243030
 30
0.0
 10
11.862166
 20
219.891013
 30
0.0
 10
10.274771
 20
220.506832
 30
0.0
 10
10.066828
 20
219.568720
 30
0.0
 10
9.929762
 20
218.950363
 30
0.0
 11
14.284275
 21
217.535636
 31
0.0
 11
13.593271
 21
216.231828
 31
0.0
 11
12.867519
 21
216.467660
 31
0.0
 11
12.107018
 21
218.243132
 31
0.0
 11
11.346635
 21
220.018457
 31
0.0
 11
10.620883
 21
220.254200
 31
0.0
 11
9.929762
 21
218.950363
 31
0.0
  0
LWPOLYLINE
  5
111
100
AcDbEntity
  8
Layer_1
 62
7
100
AcDbPolyline
 90
2
 70
0
 10
9.929955
 20
218.950363
 30
0.0
 10
6.392783
 20
208.064093
 30
0.0
  0
LWPOLYLINE
  5
112
100
AcDbEntity
  8
Layer_1
 62
7
100
AcDbPolyline
 90
2
 70
0
 10
10.747298
 20
206.649225
 30
0.0
 10
4.683585
 20
187.987040
 30
0.0
  0
SPLINE
  5
113
100
AcDbEntity
  8
Layer_1
 62
1
100
AcDbSpline
 70
0
 71
3
 72
13
 73
9
 74
7
 40
0.000000
 40
0.000000
 40
0.000000
 40
0.000000
 40
1.475644
 40
2.238751
 40
4.170082
 40
6.101514
 40
6.864622
 40
8.340282
 40
8.340282
 40
8.340282
 40
8.340282
 10
6.392548
 20
208.064347
 30
0.0
 10
6.140014
 20
207.483522
 30
0.0
 10
5.756887
 20
206.602333
 30
0.0
 10
7.403127
 20
206.167603
 30
0.0
 10
8.569820
 20
207.356896
 30
0.0
 10
9.736558
 20
208.546098
 30
0.0
 10
11.382855
 20
208.111369
 30
0.0
 10
10.999647
 20
207.230181
 30
0.0
 10
10.747060
 20
206.649355
 30
0.0
 11
6.392548
 21
208.064347
 31
0.0
 11
6.185379
 21
206.603318
 31
0.0
 11
6.911131
 21
206.367486
 31
0.0
 11
8.569804
 21
207.356851
 31
0.0
 11
10.228594
 21
208.346216
 31
0.0
 11
10.954346
 21
208.110384
 31
0.0
 11
10.747060
 21
206.649355
 31
0.0
  0
LWPOLYLINE
  5
114
100
AcDbEntity
  8
Layer_1
 62
7
100
AcDbPolyline
 90
2
 70
0
 10
27.969601
 20
234.040943
 30
0.0
 10
22.916510
 20
249.592758
 30
0.0
  0
SPLINE
  5
115
100
AcDbEntity
  8
Layer_1
 62
1
100
AcDbSpline
 70
0
 71
3
 72
13
 73
9
 74
7
 40
0.000000
 40
0.000000
 40
0.000000
 40
0.000000
 40
1.475644
 40
2.238751
 40
4.170082
 40
6.101514
 40
6.864621
 40
8.340281
 40
8.340281
 40
8.340281
 40
8.340281
 10
22.916324
 20
249.592886
 30
0.0
 10
22.663790
 20
250.173710
 30
0.0
 10
22.280663
 20
251.054900
 30
0.0
 10
23.926903
 20
251.489629
 30
0.0
 10
25.093596
 20
250.300336
 30
0.0
 10
26.260335
 20
249.111135
 30
0.0
 10
27.906632
 20
249.545864
 30
0.0
 10
27.523424
 20
250.427051
 30
0.0
 10
27.270836
 20
251.007877
 30
0.0
 11
22.916324
 21
249.592886
 31
0.0
 11
22.709155
 21
251.053915
 31
0.0
 11
23.434907
 21
251.289746
 31
0.0
 11
25.093580
 21
250.300381
 31
0.0
 11
26.752371
 21
249.311016
 31
0.0
 11
27.478123
 21
249.546848
 31
0.0
 11
27.270836
 21
251.007877
 31
0.0
  0
LWPOLYLINE
  5
116
100
AcDbEntity
  8
Layer_1
 62
7
100
AcDbPolyline
 90
2
 70
0
 10
27.271017
 20
251.007626
 30
0.0
 10
23.733854
 20
261.893898
 30
0.0
  0
LWPOLYLINE
  5
117
100
AcDbEntity
  8
Layer_1
 62
7
100
AcDbPolyline
 90
2
 70
0
 10
19.379343
 20
260.479031
 30
0.0
 10
13.315635
 20
279.141214
 30
0.0
  0
SPLINE
  5
118
100
AcDbEntity
  8
Layer_1
 62
1
100
AcDbSpline
 70
0
 71
3
 72
13
 73
9
 74
7
 40
0.000000
 40
0.000000
 40
0.000000
 40
0.000000
 40
1.475498
 40
2.238605
 40
4.169989
 40
6.101434
 40
6.864542
 40
8.340199
 40
8.340199
 40
8.340199
 40
8.340199
 10
23.733622
 20
261.894158
 30
0.0
 10
23.596574
 20
262.512457
 30
0.0
 10
23.388646
 20
263.450531
 30
0.0
 10
21.801346
 20
262.834476
 30
0.0
 10
21.556305
 20
261.186670
 30
0.0
 10
21.311540
 20
259.538721
 30
0.0
 10
19.724148
 20
258.922673
 30
0.0
 10
19.516185
 20
259.860807
 30
0.0
 10
19.379109
 20
260.479167
 30
0.0
 11
23.733622
 21
261.894158
 31
0.0
 11
23.042618
 21
263.197848
 31
0.0
 11
22.316866
 21
262.962016
 31
0.0
 11
21.556366
 21
261.186662
 31
0.0
 11
20.795983
 21
259.411191
 31
0.0
 11
20.070230
 21
259.175359
 31
0.0
 11
19.379109
 21
260.479167
 31
0.0
  0
LWPOLYLINE
  5
119
100
AcDbEntity
  8
Layer_1
 62
7
100
AcDbPolyline
 90
2
 70
0
 10
27.969601
 20
234.040943
 30
0.0
 10
22.916510
 20
218.489120
 30
0.0
  0
SPLINE
  5
11a
100
AcDbEntity
  8
Layer_1
 62
1
100
AcDbSpline
 70
0
 71
3
 72
13
 73
9
 74
7
 40
0.000000
 40
0.000000
 40
0.000000
 40
0.000000
 40
1.475602
 40
2.238709
 40
4.170201
 40
6.101512
 40
6.864592
 40
8.340275
 40
8.340275
 40
8.340275
 40
8.340275
 10
22.916324
 20
218.489263
 30
0.0
 10
22.779290
 20
217.870905
 30
0.0
 10
22.571389
 20
216.932763
 30
0.0
 10
20.984004
 20
217.548842
 30
0.0
 10
20.739055
 20
219.196657
 30
0.0
 10
20.494215
 20
220.844640
 30
0.0
 10
18.906821
 20
221.460459
 30
0.0
 10
18.698878
 20
220.522347
 30
0.0
 10
18.561812
 20
219.903990
 30
0.0
 11
22.916324
 21
218.489263
 31
0.0
 11
22.225320
 21
217.185455
 31
0.0
 11
21.499568
 21
217.421287
 31
0.0
 11
20.739068
 21
219.196759
 31
0.0
 11
19.978685
 21
220.972084
 31
0.0
 11
19.252933
 21
221.207827
 31
0.0
 11
18.561812
 21
219.903990
 31
0.0
  0
LWPOLYLINE
  5
11b
100
AcDbEntity
  8
Layer_1
 62
7
100
AcDbPolyline
 90
2
 70
0
 10
18.562000
 20
219.903992
 30
0.0
 10
15.024837
 20
209.017723
 30
0.0
  0
LWPOLYLINE
  5
11c
100
AcDbEntity
  8
Layer_1
 62
7
100
AcDbPolyline
 90
2
 70
0
 10
19.379343
 20
207.602852
 30
0.0
 10
13.315635
 20
188.940670
 30
0.0
  0
SPLINE
  5
11d
100
AcDbEntity
  8
Layer_1
 62
1
100
AcDbSpline
 70
0
 71
3
 72
13
 73
9
 74
7
 40
0.000000
 40
0.000000
 40
0.000000
 40
0.000000
 40
1.475644
 40
2.238751
 40
4.170082
 40
6.101515
 40
6.864622
 40
8.340283
 40
8.340283
 40
8.340283
 40
8.340283
 10
15.024597
 20
209.017974
 30
0.0
 10
14.772063
 20
208.437149
 30
0.0
 10
14.388936
 20
207.555960
 30
0.0
 10
16.035176
 20
207.121230
 30
0.0
 10
17.201869
 20
208.310523
 30
0.0
 10
18.368608
 20
209.499725
 30
0.0
 10
20.014905
 20
209.064996
 30
0.0
 10
19.631697
 20
208.183808
 30
0.0
 10
19.379109
 20
207.602982
 30
0.0
 11
15.024597
 21
209.017974
 31
0.0
 11
14.817428
 21
207.556945
 31
0.0
 11
15.543180
 21
207.321113
 31
0.0
 11
17.201853
 21
208.310478
 31
0.0
 11
18.860644
 21
209.299843
 31
0.0
 11
19.586396
 21
209.064011
 31
0.0
 11
19.379109
 21
207.602982
 31
0.0
  0
LWPOLYLINE
  5
11e
100
AcDbEntity
  8
Layer_1
 62
7
100
AcDbPolyline
 90
2
 70
0
 10
75.390831
 20
234.040943
 30
0.0
 10
53.985592
 20
249.592758
 30
0.0
  0
SPLINE
  5
11f
100
AcDbEntity
  8
Layer_1
 62
1
100
AcDbSpline
 70
0
 71
3
 72
13
 73
9
 74
7
 40
0.000000
 40
0.000000
 40
0.000000
 40
0.000000
 40
2.387667
 40
3.622372
 40
6.747510
 40
9.872544
 40
11.107321
 40
13.494927
 40
13.494927
 40
13.494927
 40
13.494927
 10
53.985551
 20
249.592886
 30
0.0
 10
53.102507
 20
250.112981
 30
0.0
 10
51.762824
 20
250.902026
 30
0.0
 10
53.504479
 20
253.036761
 30
0.0
 10
56.162766
 20
252.589499
 30
0.0
 10
58.821098
 20
252.142535
 30
0.0
 10
60.562637
 20
254.277292
 30
0.0
 10
59.223031
 20
255.066382
 30
0.0
 10
58.340063
 20
255.586492
 30
0.0
 11
53.985551
 21
249.592886
 31
0.0
 11
52.324703
 21
251.308268
 31
0.0
 11
53.050455
 21
252.307158
 31
0.0
 11
56.162807
 21
252.589556
 31
0.0
 11
59.275042
 21
252.872102
 31
0.0
 11
60.000794
 21
253.871080
 31
0.0
 11
58.340063
 21
255.586492
 31
0.0
  0
LWPOLYLINE
  5
120
100
AcDbEntity
  8
Layer_1
 62
7
100
AcDbPolyline
 90
2
 70
0
 10
58.340099
 20
255.586227
 30
0.0
 10
43.356438
 20
266.472500
 30
0.0
  0
LWPOLYLINE
  5
121
100
AcDbEntity
  8
Layer_1
 62
7
100
AcDbPolyline
 90
2
 70
0
 10
39.001923
 20
260.479031
 30
0.0
 10
13.315635
 20
279.141214
 30
0.0
  0
SPLINE
  5
122
100
AcDbEntity
  8
Layer_1
 62
1
100
AcDbSpline
 70
0
 71
3
 72
13
 73
9
 74
7
 40
0.000000
 40
0.000000
 40
0.000000
 40
0.000000
 40
2.387575
 40
3.622281
 40
6.747338
 40
9.872420
 40
11.107126
 40
13.494807
 40
13.494807
 40
13.494807
 40
13.494807
 10
43.356180
 20
266.472508
 30
0.0
 10
42.588701
 20
267.151588
 30
0.0
 10
41.424330
 20
268.181846
 30
0.0
 10
39.932286
 20
265.865850
 30
0.0
 10
41.178881
 20
263.475822
 30
0.0
 10
42.425702
 20
261.085828
 30
0.0
 10
40.933607
 20
258.769808
 30
0.0
 10
39.769189
 20
259.800072
 30
0.0
 10
39.001668
 20
260.479167
 30
0.0
 11
43.356180
 21
266.472508
 31
0.0
 11
41.211615
 21
267.521963
 31
0.0
 11
40.485863
 21
266.523073
 31
0.0
 11
41.178924
 21
263.475837
 31
0.0
 11
41.872103
 21
260.428602
 31
0.0
 11
41.146351
 21
259.429712
 31
0.0
 11
39.001668
 21
260.479167
 31
0.0
  0
LWPOLYLINE
  5
123
100
AcDbEntity
  8
Layer_1
 62
7
100
AcDbPolyline
 90
2
 70
0
 10
75.390831
 20
234.040943
 30
0.0
 10
53.985592
 20
218.489120
 30
0.0
  0
SPLINE
  5
124
100
AcDbEntity
  8
Layer_1
 62
1
100
AcDbSpline
 70
0
 71
3
 72
13
 73
9
 74
7
 40
0.000000
 40
0.000000
 40
0.000000
 40
0.000000
 40
2.387681
 40
3.622387
 40
6.747470
 40
9.872527
 40
11.107232
 40
13.494808
 40
13.494808
 40
13.494808
 40
13.494808
 10
53.985551
 20
218.489263
 30
0.0
 10
53.218030
 20
217.810169
 30
0.0
 10
52.053611
 20
216.779904
 30
0.0
 10
50.561516
 20
219.095925
 30
0.0
 10
51.808337
 20
221.485918
 30
0.0
 10
53.054932
 20
223.875946
 30
0.0
 10
51.562889
 20
226.191942
 30
0.0
 10
50.398517
 20
225.161685
 30
0.0
 10
49.631038
 20
224.482605
 30
0.0
 11
53.985551
 21
218.489263
 31
0.0
 11
51.840868
 21
217.439808
 31
0.0
 11
51.115115
 21
218.438698
 31
0.0
 11
51.808294
 21
221.485934
 31
0.0
 11
52.501356
 21
224.533169
 31
0.0
 11
51.775604
 21
225.532060
 31
0.0
 11
49.631038
 21
224.482605
 31
0.0
  0
LWPOLYLINE
  5
125
100
AcDbEntity
  8
Layer_1
 62
7
100
AcDbPolyline
 90
2
 70
0
 10
49.631084
 20
224.482590
 30
0.0
 10
34.647415
 20
213.596313
 30
0.0
  0
SPLINE
  5
126
100
AcDbEntity
  8
Layer_1
 62
1
100
AcDbSpline
 70
0
 71
3
 72
13
 73
9
 74
7
 40
0.000000
 40
0.000000
 40
0.000000
 40
0.000000
 40
2.387501
 40
3.622206
 40
6.747237
 40
9.872375
 40
11.107081
 40
13.494748
 40
13.494748
 40
13.494748
 40
13.494748
 10
34.647155
 20
213.596324
 30
0.0
 10
33.764180
 20
213.076261
 30
0.0
 10
32.424572
 20
212.287245
 30
0.0
 10
34.166182
 20
210.152615
 30
0.0
 10
36.824440
 20
210.599604
 30
0.0
 10
39.482740
 20
211.046857
 30
0.0
 10
41.224394
 20
208.912123
 30
0.0
 10
39.884712
 20
208.123077
 30
0.0
 10
39.001668
 20
207.602982
 30
0.0
 11
34.647155
 21
213.596324
 31
0.0
 11
32.986424
 21
211.881059
 31
0.0
 11
33.712176
 21
210.882169
 31
0.0
 11
36.824411
 21
210.599653
 31
0.0
 11
39.936764
 21
210.317254
 31
0.0
 11
40.662516
 21
209.318364
 31
0.0
 11
39.001668
 21
207.602982
 31
0.0
  0
LWPOLYLINE
  5
127
100
AcDbEntity
  8
Layer_1
 62
7
100
AcDbPolyline
 90
2
 70
0
 10
39.001923
 20
207.602852
 30
0.0
 10
13.315635
 20
188.940670
 30
0.0
  0
ENDSEC
  0
SECTION
  2
OBJECTS
  0
DICTIONARY
  5
C
330
0
100
AcDbDictionary
  3
ACAD_GROUP
350
D
  3
ACAD_MLINESTYLE
350
17
  0
DICTIONARY
  5
D
330
C
100
AcDbDictionary
  0
DICTIONARY
  5
1A
330
C
100
AcDbDictionary
  0
DICTIONARY
  5
17
330
C
100
AcDbDictionary
  3
STANDARD
350
18
  0
DICTIONARY
  5
19
330
C
100
AcDbDictionary
  0
ENDSEC
  0
EOF
